<svg width="134" height="134" viewBox="0 0 134 134" fill="none" xmlns="http://www.w3.org/2000/svg">
<path d="M129.155 128.617H111.016C113.411 127.003 115.187 124.311 116.021 121.62H118.605C124.472 121.62 129.209 116.749 129.209 110.882V103.211C129.209 99.04 126.787 95.2721 122.992 93.5228L113.841 89.3513L105.741 76.4061C103.292 72.5575 99.0393 70.2161 94.4641 70.2161H59.7732C55.6285 70.2161 51.7262 72.1538 49.2232 75.4641L38.8079 89.1629L21.3144 93.9534C16.6854 95.2183 13.4827 99.4168 13.4827 104.207V110.909C13.4827 116.776 18.2733 121.647 24.1134 121.647H25.3514C26.1588 124.338 27.9619 127.03 30.3572 128.644H7.53495V19.0544C7.53495 11.465 13.7519 5.38261 21.3413 5.38261H58.3737C65.0212 5.38261 70.7268 10.1193 71.9109 16.6592C63.0565 18.0856 56.5436 25.702 56.5167 34.664V36.5479C56.5167 38.055 57.7278 39.2661 59.2349 39.293H90.4271C91.9342 39.2661 93.1184 38.055 93.1184 36.5479V34.664C93.0915 25.5674 86.3901 17.8433 77.3474 16.6053C76.0825 7.10504 67.9547 0 58.3468 0H21.3413C10.7645 0 2.15234 8.50452 2.15234 19.0544V131.416C2.15234 132.897 3.39034 134 4.87056 134H129.155C130.635 134 131.846 132.789 131.846 131.309C131.846 129.828 130.635 128.617 129.155 128.617ZM75.6249 21.7996C82.1379 22.2033 87.3052 27.3975 87.7089 33.8835H61.9531C62.3837 26.7785 68.5199 21.3689 75.6249 21.7996ZM24.9746 116.237H24.1134C21.2337 116.237 18.8653 113.788 18.8653 110.882V104.18C18.8653 101.812 20.4532 99.7397 22.7408 99.1207L41.1224 94.1149C41.6876 93.9534 42.1989 93.6304 42.5488 93.146L53.5293 78.7206C54.9826 76.756 57.3241 75.5987 59.7732 75.5987H94.4641C97.1823 75.5987 99.7121 76.9982 101.165 79.3127L109.697 92.9307C109.966 93.3882 110.37 93.7381 110.854 93.9534L120.731 98.4479C122.588 99.3091 123.799 101.166 123.799 103.238V110.909C123.799 113.815 121.458 116.264 118.578 116.264H116.398C115.429 108.917 108.674 103.777 101.354 104.746C95.3522 105.553 90.6155 110.263 89.835 116.264H51.5378C50.5689 108.917 43.8406 103.777 36.4934 104.746C30.4918 105.499 25.7551 110.236 24.9746 116.237ZM38.2696 125.926C33.8559 125.926 30.2496 122.32 30.2496 117.906C30.2226 113.465 33.829 109.886 38.2696 109.886C42.7103 109.886 46.2897 113.492 46.2897 117.906C46.2897 122.347 42.6834 125.926 38.2696 125.926ZM46.1821 128.617C48.5504 127.003 50.3536 124.311 51.161 121.62H90.1849C90.9923 124.311 92.7954 127.003 95.1907 128.617H46.1821ZM103.103 125.926C98.6625 125.926 95.0831 122.32 95.0831 117.906C95.0831 113.492 98.6894 109.886 103.103 109.886C107.544 109.886 111.123 113.492 111.123 117.906C111.123 122.347 107.517 125.926 103.103 125.926Z" fill="#FFD700"/>
<path d="M74.8183 41.7151C73.338 41.7151 72.127 42.9262 72.127 44.4064V49.0623C72.127 50.5426 73.338 51.7537 74.8183 51.7537C76.2985 51.7537 77.5096 50.5426 77.5096 49.0623V44.4064C77.5096 42.9262 76.2985 41.7151 74.8183 41.7151Z" fill="#FFD700"/>
<path d="M88.0058 41.7151C86.5255 41.7151 85.3145 42.9262 85.3145 44.4064V49.0623C85.3145 50.5426 86.5255 51.7537 88.0058 51.7537C89.486 51.7537 90.6971 50.5426 90.6971 49.0623V44.4064C90.6971 42.9262 89.486 41.7151 88.0058 41.7151Z" fill="#FFD700"/>
<path d="M61.6308 41.7151C60.1505 41.7151 58.9395 42.9262 58.9395 44.4064V49.0623C58.9395 50.5426 60.1505 51.7537 61.6308 51.7537C63.111 51.7537 64.3221 50.5426 64.3221 49.0623V44.4064C64.3221 42.9262 63.111 41.7151 61.6308 41.7151Z" fill="#FFD700"/>
<path d="M74.8183 54.8218C73.338 54.8218 72.127 56.0329 72.127 57.5131V62.169C72.127 63.6493 73.338 64.8603 74.8183 64.8603C76.2985 64.8603 77.5096 63.6493 77.5096 62.169V57.5131C77.5096 56.0329 76.2985 54.8218 74.8183 54.8218Z" fill="#FFD700"/>
<path d="M88.0058 54.8218C86.5255 54.8218 85.3145 56.0329 85.3145 57.5131V62.169C85.3145 63.6493 86.5255 64.8603 88.0058 64.8603C89.486 64.8603 90.6971 63.6493 90.6971 62.169V57.5131C90.6971 56.0329 89.486 54.8218 88.0058 54.8218Z" fill="#FFD700"/>
<path d="M61.6308 54.8218C60.1505 54.8218 58.9395 56.0329 58.9395 57.5131V62.169C58.9395 63.6493 60.1505 64.8603 61.6308 64.8603C63.111 64.8603 64.3221 63.6493 64.3221 62.169V57.5131C64.3221 56.0329 63.111 54.8218 61.6308 54.8218Z" fill="#FFD700"/>
</svg>
