<svg width="24" height="24" viewBox="0 0 24 24" fill="none" xmlns="http://www.w3.org/2000/svg">
<path d="M1.2 10.416C1.344 10.176 1.584 10.032 1.824 9.984C3.168 9.792 4.944 8.688 5.76 8.496C7.536 8.064 12 7.296 13.68 7.92C16.416 9.024 17.088 9.792 17.568 9.984C19.296 10.176 20.832 10.512 22.224 10.944C22.416 11.04 22.56 11.136 22.704 11.28C23.376 12 23.616 12.864 23.52 13.872C23.424 14.592 22.8 15.12 22.08 15.12C22.176 14.832 22.224 14.544 22.224 14.256C22.224 12.624 20.88 11.28 19.248 11.28C17.616 11.28 16.272 12.624 16.272 14.256C16.272 14.544 16.32 14.88 16.416 15.12H7.92C8.016 14.832 8.064 14.544 8.064 14.256C8.064 12.624 6.72 11.28 5.088 11.28C3.456 11.28 2.112 12.624 2.112 14.256C2.112 14.544 2.16 14.784 2.208 15.024C1.872 14.928 1.488 14.832 1.056 14.592C0.816 14.448 0.671999 14.208 0.623999 13.92C0.383999 12.72 0.576 11.52 1.2 10.416ZM11.52 10.176L15.792 10.32L16.128 10.224C15.312 9.696 14.4 9.264 13.344 8.832C13.296 8.832 13.248 8.784 13.2 8.784C12.672 8.688 12.096 8.688 11.52 8.688V10.176ZM6.432 9.984L10.56 10.128V8.736C9.216 8.784 7.776 9.024 6.144 9.408L6.432 9.984Z" fill="#FFD700"/>
<path d="M21.216 14.256C21.216 13.152 20.304 12.24 19.2 12.24C18.096 12.24 17.184 13.152 17.184 14.256C17.184 15.36 18.096 16.272 19.2 16.272C20.304 16.272 21.216 15.36 21.216 14.256Z" fill="#FFD700"/>
<path d="M2.976 14.256C2.976 15.36 3.888 16.272 4.992 16.272C6.096 16.272 7.008 15.36 7.008 14.256C7.008 13.152 6.096 12.24 4.992 12.24C3.888 12.24 2.976 13.152 2.976 14.256Z" fill="#FFD700"/>
</svg>
