<svg width="70" height="65" viewBox="0 0 70 65" fill="none" xmlns="http://www.w3.org/2000/svg">
<path d="M3.63135 49.522V55.7906H64.5619V49.522C64.5619 49.522 4.28982 49.522 3.63135 49.522Z" fill="#ABB8C2"/>
<path d="M42.9977 10.6256C42.9977 10.6256 42.7238 2.77536 50.2295 2.74911C56.7788 2.72629 57.5285 9.67158 57.5285 9.67158C57.6586 9.71609 57.7876 9.76516 57.9154 9.81879C59.2825 10.3985 60.2959 11.4587 60.854 12.7174C61.921 12.5063 63.0462 12.6341 64.1372 13.0564C65.8512 13.7217 69.8865 16.9615 66.7003 22.3388H44.7894L42.9977 10.6256Z" fill="#43A0F2"/>
<path d="M24.5513 10.7409H52.6326C54.2942 10.7409 55.7435 11.9403 56.1521 13.6532L59.7001 28.5035H8.49249L10.1369 21.6187V12.2632L16.4968 5.90335L24.5513 10.7409Z" fill="#53B3F5"/>
<path d="M40.5349 10.2593H15.6569C13.9508 10.2593 12.4627 11.4907 12.0416 13.2504L8.49249 28.1098H22.6844L40.5349 10.2593Z" fill="#A1DEFF"/>
<path d="M28.597 28.1098L46.4475 10.2593H42.5755L24.7238 28.1098H28.597Z" fill="#A1DEFF"/>
<path d="M64.5619 49.522V34.957L59.7004 28.5047H34.0966H8.49283L3.63135 34.957V49.522H64.5619Z" fill="#F9313C"/>
<path d="M42.441 42.1865H34.0955H25.7499L23.2918 49.5221H34.0955H44.8991L42.441 42.1865Z" fill="#757575"/>
<path d="M59.4577 63.8588H52.4588C50.157 63.8588 48.2911 61.993 48.2911 59.6912V55.7906H63.6253V59.6912C63.6253 61.9919 61.7595 63.8588 59.4577 63.8588Z" fill="#757575"/>
<path d="M8.73902 63.8588H15.7368C18.0386 63.8588 19.9044 61.993 19.9044 59.6912V55.7906H4.57025V59.6912C4.57025 61.9919 6.4361 63.8588 8.73902 63.8588Z" fill="#757575"/>
<path d="M48.2911 55.7906H63.6253V58.1745H48.2911V55.7906Z" fill="#454545"/>
<path d="M4.57025 55.7906H19.9044V58.1745H4.57025V55.7906Z" fill="#454545"/>
<path d="M64.1927 6.15563C65.5774 6.15563 66.6999 5.03312 66.6999 3.64843C66.6999 2.26375 65.5774 1.14124 64.1927 1.14124C62.808 1.14124 61.6855 2.26375 61.6855 3.64843C61.6855 5.03312 62.808 6.15563 64.1927 6.15563Z" fill="#43A0F2"/>
<path d="M21.6413 4.9505C21.057 4.9505 20.507 5.09201 20.0174 5.33736C19.2049 3.60617 17.4508 2.40564 15.4127 2.40564C12.6019 2.40564 10.323 4.6846 10.323 7.49535C10.323 7.76582 10.3503 8.02943 10.3914 8.28848C9.72155 8.07052 9.00945 7.94841 8.26767 7.94841C4.49603 7.94841 1.43878 11.0057 1.43878 14.7773C1.43878 18.5489 4.49603 21.6062 8.26767 21.6062C9.86534 21.6062 11.3318 21.0527 12.4958 20.1329C13.322 20.7115 14.3263 21.055 15.4115 21.055C18.2223 21.055 20.5012 18.776 20.5012 15.9653C20.5012 14.1987 19.6008 12.6433 18.2348 11.7303C18.5179 11.5409 18.7815 11.3241 19.0211 11.0833C19.6819 11.7737 20.6097 12.2051 21.6402 12.2051C23.6429 12.2051 25.268 10.5811 25.268 8.5772C25.268 6.57327 23.6441 4.9505 21.6413 4.9505Z" fill="#43A0F2"/>
<path d="M59.7001 28.5047H63.9967C65.6514 28.5047 66.9923 26.8956 66.9923 24.9122V23.3225C66.9923 22.3753 66.27 21.6062 65.3798 21.6062H58.0522L59.7001 28.5047Z" fill="#F9313C"/>
<path d="M8.43298 28.5047H4.13753C2.48281 28.5047 1.14191 26.8956 1.14191 24.9122V23.3225C1.14191 22.3753 1.86428 21.6062 2.75441 21.6062H10.082L8.43298 28.5047Z" fill="#F9313C"/>
<path d="M64.5614 43.767H51.0714L54.6296 36.8833C54.9138 36.3344 55.4319 35.9681 56.0173 35.903L64.5626 34.957V43.767H64.5614Z" fill="#FABB53"/>
<path d="M3.63135 43.767H17.1225L13.5597 36.873C13.279 36.331 12.7666 35.9681 12.188 35.9042L3.63249 34.957V43.767H3.63135Z" fill="#FABB53"/>
<path d="M13.3537 49.522H54.8383V55.7906H13.3537V49.522Z" fill="#DFE6ED"/>
<path d="M58.59 28.7694L55.0432 13.9191C54.7568 12.7197 53.7662 11.8821 52.6341 11.8821H24.5517V9.59967H52.633C54.8264 9.59967 56.7299 11.1574 57.2628 13.3884L60.8096 28.2388L58.59 28.7694Z" fill="#051921"/>
<path d="M7.38879 28.2253L9.03108 21.3376L11.2518 21.8671L9.60955 28.7548L7.38879 28.2253Z" fill="#051921"/>
<path d="M64.5632 50.6632H3.63155C3.00047 50.6632 2.49036 50.1531 2.49036 49.522V34.9582C2.49036 34.7105 2.57024 34.4686 2.71974 34.2712L7.58121 27.8177C7.7969 27.5313 8.13355 27.3635 8.49302 27.3635H59.7006C60.0589 27.3635 60.3956 27.5313 60.6124 27.8177L65.475 34.2712C65.6245 34.4686 65.7044 34.7105 65.7044 34.9582V49.522C65.7044 50.1531 65.1931 50.6632 64.5632 50.6632ZM4.77274 48.3809H63.422V35.3405L59.1311 29.6459H9.06248L4.77274 35.3405V48.3809Z" fill="#051921"/>
<path d="M64.5632 56.9318H3.63155C3.00047 56.9318 2.49036 56.4216 2.49036 55.7906V49.522H4.77274V54.6482H63.422V49.522H65.7044V55.7894C65.7044 56.4205 65.1931 56.9318 64.5632 56.9318Z" fill="#051921"/>
<path d="M64.5626 44.9082H51.0703C50.672 44.9082 50.3023 44.7005 50.0957 44.3616C49.8892 44.0203 49.8743 43.597 50.0569 43.2443L53.6151 36.3595C54.0739 35.4705 54.9252 34.876 55.8918 34.7687L64.4359 33.8238L64.6881 36.0925L56.1429 37.0374C55.9375 37.0602 55.7503 37.1983 55.643 37.406L52.9453 42.6258H64.5626V44.9082Z" fill="#051921"/>
<path d="M17.1206 44.9082H3.63054V42.6258H15.2467L12.5444 37.3957C12.4405 37.1937 12.2591 37.0602 12.0594 37.0385L3.505 36.0925L3.75721 33.8238L12.3127 34.7698C13.2725 34.8771 14.1158 35.4671 14.5711 36.3481L18.1351 43.2443C18.3177 43.5981 18.3017 44.0215 18.0963 44.3616C17.8886 44.7016 17.5188 44.9082 17.1206 44.9082Z" fill="#051921"/>
<path d="M63.9954 29.6447H59.6988V27.3623H63.9954C65.0019 27.3623 65.851 26.2405 65.851 24.9122V23.3213C65.851 23.0109 65.6353 22.7473 65.3797 22.7473H58.0521V20.4649H65.3797C66.8986 20.4649 68.1333 21.7465 68.1333 23.3213V24.9122C68.1333 27.5221 66.2766 29.6447 63.9954 29.6447Z" fill="#051921"/>
<path d="M8.43335 29.6447H4.13676C1.85552 29.6447 -6.10352e-05 27.5221 -6.10352e-05 24.9122V23.3213C-6.10352e-05 21.7465 1.23471 20.4649 2.75363 20.4649H10.0812V22.7473H2.75363C2.49801 22.7473 2.28232 23.0098 2.28232 23.3213V24.9122C2.28232 26.2405 3.13137 27.3623 4.13676 27.3623H8.43335V29.6447Z" fill="#051921"/>
<path d="M53.6975 49.522H55.9799V55.7894H53.6975V49.522Z" fill="#051921"/>
<path d="M12.2128 49.522H14.4952V55.7894H12.2128V49.522Z" fill="#051921"/>
<path d="M44.8998 50.6631H23.2925C22.9262 50.6631 22.5804 50.4874 22.3659 50.1884C22.1513 49.8906 22.0931 49.5071 22.2095 49.1602L24.6665 41.8235C24.8229 41.3579 25.2588 41.044 25.7484 41.044H42.4394C42.9301 41.044 43.3661 41.3567 43.5213 41.8235L45.9794 49.1602C46.097 49.5083 46.0388 49.8917 45.8231 50.1884C45.6119 50.4863 45.2662 50.6631 44.8998 50.6631ZM24.8788 48.3808H43.3136L41.6201 43.3264H26.5723L24.8788 48.3808Z" fill="#051921"/>
<path d="M59.4579 65H52.459C49.5318 65 47.1501 62.6183 47.1501 59.6912V55.7906C47.1501 55.1595 47.6603 54.6494 48.2913 54.6494H63.6267C64.2578 54.6494 64.7679 55.1595 64.7679 55.7906V59.6912C64.7667 62.6183 62.3851 65 59.4579 65ZM49.4325 56.9318V59.6912C49.4325 61.3607 50.7894 62.7176 52.459 62.7176H59.4579C61.1275 62.7176 62.4843 61.3607 62.4843 59.6912V56.9318H49.4325Z" fill="#051921"/>
<path d="M15.7371 65H8.7393C5.81215 65 3.43048 62.6183 3.43048 59.6912V55.7906C3.43048 55.1595 3.94059 54.6494 4.57167 54.6494H19.907C20.5381 54.6494 21.0482 55.1595 21.0482 55.7906V59.6912C21.0471 62.6183 18.6654 65 15.7371 65ZM5.71172 56.9318V59.6912C5.71172 61.3607 7.0686 62.7176 8.73816 62.7176H15.7371C17.4067 62.7176 18.7635 61.3607 18.7635 59.6912V56.9318H5.71172Z" fill="#051921"/>
<path d="M64.192 7.29564C62.1801 7.29564 60.5447 5.65917 60.5447 3.64839C60.5447 1.63761 62.1812 0 64.192 0C66.2028 0 67.8404 1.63761 67.8404 3.64839C67.8404 5.65917 66.2039 7.29564 64.192 7.29564ZM64.192 2.28238C63.4399 2.28238 62.8271 2.8952 62.8271 3.64839C62.8271 4.40044 63.4399 5.01326 64.192 5.01326C64.9452 5.01326 65.558 4.40044 65.558 3.64839C65.5591 2.8952 64.9463 2.28238 64.192 2.28238Z" fill="#051921"/>
<path d="M67.6818 22.9208L65.7178 21.7568C66.7289 20.0507 66.9959 18.4759 66.5132 17.0791C65.9643 15.4883 64.5435 14.4384 63.723 14.12C62.8203 13.7696 61.9062 13.6726 61.0754 13.8358C60.555 13.9454 60.0255 13.6669 59.811 13.1785C59.3477 12.1331 58.5157 11.3126 57.4693 10.8698C57.3677 10.8265 57.2684 10.7888 57.1668 10.7534C56.7435 10.6131 56.441 10.2376 56.3931 9.7937C56.3669 9.55519 55.6559 3.88918 50.2592 3.88918C50.2501 3.88918 50.2409 3.88918 50.233 3.88918C48.4002 3.89602 46.9555 4.43353 45.9398 5.48685C44.0819 7.41774 44.1367 10.5526 44.1378 10.5845L41.8577 10.6644C41.8509 10.4978 41.7448 6.55386 44.2965 3.90401C45.7549 2.38737 47.7509 1.61478 50.2261 1.60565H50.2603C55.7552 1.60565 58.0033 6.00837 58.5568 8.85336C59.7836 9.41939 60.8027 10.3358 61.4977 11.4872C62.4951 11.4245 63.5358 11.5991 64.5492 11.9905C65.6733 12.4276 67.8062 13.8324 68.6712 16.3327C69.1608 17.7512 69.3867 20.0416 67.6818 22.9208Z" fill="#051921"/>
<path d="M8.26812 22.7474C3.87225 22.7474 0.298035 19.172 0.298035 14.7773C0.298035 10.3826 3.87339 6.80723 8.26812 6.80723C8.58309 6.80723 8.8992 6.82663 9.21302 6.86429C9.53028 3.72373 12.1881 1.26447 15.412 1.26447C17.4593 1.26447 19.3708 2.28811 20.5234 3.94284C20.8863 3.85497 21.2606 3.81046 21.6406 3.81046C24.2699 3.81046 26.4096 5.9502 26.4096 8.5795C26.4096 11.2088 24.2699 13.3485 21.6406 13.3485C21.4409 13.3485 21.2435 13.336 21.0495 13.3132C21.4352 14.1314 21.6429 15.0352 21.6429 15.9676C21.6429 19.4037 18.847 22.1985 15.4108 22.1985C14.4043 22.1985 13.4286 21.9588 12.5464 21.5001C11.2683 22.3183 9.80416 22.7474 8.26812 22.7474ZM8.26812 9.08962C5.13212 9.08962 2.58042 11.6413 2.58042 14.7773C2.58042 17.9133 5.13212 20.465 8.26812 20.465C9.55538 20.465 10.7719 20.0405 11.7887 19.2382C12.187 18.9244 12.7393 18.9107 13.1513 19.1994C13.8177 19.6662 14.5995 19.9138 15.4108 19.9138C17.5882 19.9138 19.3605 18.1427 19.3605 15.9653C19.3605 14.6438 18.7032 13.4159 17.6008 12.6787C17.2847 12.4675 17.0941 12.1115 17.0941 11.7303C17.0941 11.3503 17.2835 10.9931 17.5996 10.782C17.8199 10.6348 18.0264 10.4648 18.2125 10.2787C18.4304 10.0596 18.7351 9.93182 19.0341 9.94209C19.3422 9.94551 19.6344 10.0722 19.8478 10.2959C20.3214 10.7923 20.9582 11.065 21.6406 11.065C23.0112 11.065 24.1273 9.94893 24.1273 8.57836C24.1273 7.20779 23.0112 6.09171 21.6406 6.09171C21.2537 6.09171 20.8806 6.18072 20.5302 6.35646C20.2552 6.49455 19.9357 6.51509 19.6447 6.41695C19.3537 6.31652 19.1151 6.10312 18.9839 5.82238C18.3346 4.43926 16.932 3.54571 15.4108 3.54571C13.2334 3.54571 11.4623 5.31798 11.4623 7.49537C11.4623 7.70535 11.4851 7.90848 11.516 8.10933C11.5787 8.50304 11.4326 8.89904 11.1302 9.15695C10.8267 9.416 10.4101 9.49588 10.0347 9.37263C9.45724 9.18548 8.86382 9.08962 8.26812 9.08962Z" fill="#051921"/>
</svg>
