<svg width="124" height="124" viewBox="0 0 124 124" fill="none" xmlns="http://www.w3.org/2000/svg">
<path d="M18.3673 40.4129H40.4384C40.371 40.8858 40.3134 41.3617 40.2771 41.8439V41.8442C40.208 42.765 40.527 43.6797 41.1526 44.3537C41.7779 45.0277 42.6662 45.4143 43.5895 45.4143H80.408C81.3315 45.4143 82.2201 45.0275 82.8454 44.3532C83.4707 43.679 83.7897 42.7643 83.7204 41.8439C83.6843 41.3617 83.6264 40.8856 83.5591 40.4129H105.63C106.507 40.4129 107.35 40.0457 107.944 39.4056C108.538 38.7655 108.841 37.897 108.776 37.0227C108.209 29.4626 103.266 23.1354 96.5614 20.4624C99.1524 18.3777 100.815 15.1837 100.815 11.6068C100.815 5.34023 95.7177 0.242188 89.4513 0.242188C83.1849 0.242188 78.0869 5.34023 78.0869 11.6066C78.0869 15.1825 79.7485 18.376 82.3387 20.4607C79.4419 21.6116 76.8343 23.4573 74.7621 25.8683C73.1698 24.7094 71.4187 23.7622 69.5512 23.0642C72.6512 20.7538 74.6628 17.0604 74.6628 12.9057C74.6626 5.92294 68.9818 0.242188 61.9991 0.242188C55.0163 0.242188 49.3356 5.92294 49.3356 12.9057C49.3356 17.0604 51.3472 20.7538 54.4472 23.0642C52.5797 23.7622 50.8287 24.7097 49.2363 25.8683C47.1639 23.4573 44.5568 21.6116 41.6597 20.4607C44.2497 18.376 45.9116 15.1825 45.9116 11.6066C45.9113 5.34023 40.8133 0.242188 34.5469 0.242188C28.2805 0.242188 23.1827 5.34023 23.1827 11.6066C23.1827 15.1832 24.8454 18.3774 27.4363 20.4622C20.7316 23.1352 15.789 29.4624 15.222 37.022C15.1564 37.896 15.4591 38.7648 16.053 39.4049C16.6468 40.0455 17.4904 40.4129 18.3673 40.4129ZM81.9619 11.6066C81.9619 7.47705 85.3215 4.11719 89.4513 4.11719C93.5811 4.11719 96.9407 7.47705 96.9407 11.6066C96.9407 15.7354 93.5823 19.0945 89.4537 19.096C89.453 19.096 89.4523 19.096 89.4513 19.096C89.4503 19.096 89.4494 19.096 89.4484 19.096C85.3198 19.0943 81.9619 15.7354 81.9619 11.6066ZM89.4484 22.971H89.4513H89.4537C97.2582 22.9722 103.868 28.8704 104.835 36.5379H82.6381C81.5962 33.4635 79.8847 30.6999 77.6839 28.4132C80.6243 24.9809 84.9132 22.9717 89.4484 22.971ZM53.2106 12.9057C53.2106 8.05951 57.1529 4.11719 61.9991 4.11719C66.8453 4.11719 70.7876 8.05951 70.7876 12.9057C70.7876 17.7516 66.8453 21.6939 61.9991 21.6939C57.1529 21.6939 53.2106 17.7514 53.2106 12.9057ZM79.8023 41.5393H44.1959C45.1748 32.5362 52.8817 25.5689 61.9991 25.5689C71.1165 25.5689 78.8231 32.536 79.8023 41.5393ZM27.0577 11.6066C27.0577 7.47705 30.4174 4.11719 34.5471 4.11719C38.6769 4.11719 42.0366 7.47705 42.0366 11.6066C42.0366 15.7352 38.6784 19.0943 34.5501 19.096C34.5491 19.096 34.5481 19.096 34.5471 19.096C34.5464 19.096 34.5457 19.096 34.5447 19.096C30.4159 19.0948 27.0577 15.7354 27.0577 11.6066ZM34.5447 22.971H34.5471H34.5501C39.0853 22.9717 43.3744 24.9809 46.3148 28.4132C44.1143 30.6999 42.4027 33.4635 41.3606 36.5379H19.1641C20.13 28.8704 26.7402 22.9722 34.5447 22.971ZM122.145 92.4427L113.805 50.575C113.593 49.5104 112.977 48.5906 112.07 47.9853C111.164 47.3804 110.079 47.1638 109.014 47.3757L98.2807 49.514C97.2161 49.7262 96.2962 50.3421 95.691 51.2483C95.0858 52.1546 94.8693 53.2403 95.0814 54.305L95.1759 54.7789C88.764 56.8971 80.974 57.4895 71.2858 49.4966C66.8353 45.825 61.0354 45.7049 56.8531 49.1968L52.5238 52.8116H28.9315C28.6496 51.2033 27.413 49.8516 25.718 49.514L14.9849 47.3757C13.9203 47.1633 12.8343 47.3801 11.9283 47.9853C11.022 48.5906 10.4059 49.5104 10.194 50.575L1.8528 92.4425C1.64065 93.5074 1.85716 94.5929 2.46239 95.4994C3.06737 96.4056 3.9872 97.0215 5.05186 97.2337L15.7849 99.372C16.0518 99.4252 16.3196 99.4514 16.586 99.4514C17.3823 99.4514 18.1627 99.2162 18.8418 98.7626C19.748 98.1574 20.3642 97.2378 20.5761 96.1729L20.6088 96.0092L46.0021 121.402C47.5754 122.975 49.642 123.762 51.7086 123.762C53.7751 123.762 55.8415 122.975 57.4147 121.402C58.4767 120.34 59.2052 119.031 59.5477 117.602L63.0236 121.078C66.1703 124.224 71.2901 124.223 74.4364 121.077C75.5224 119.991 76.2339 118.669 76.5701 117.275C78.0726 118.706 80.0401 119.492 82.1336 119.491C84.2939 119.491 86.3205 118.654 87.84 117.135C89.5741 115.401 90.3522 113.067 90.1749 110.795C90.384 110.811 90.5944 110.819 90.8063 110.819C92.9664 110.819 94.993 109.982 96.5128 108.462C98.6346 106.34 99.3638 103.174 98.5004 100.358L103.3 95.5582L103.422 96.1729C103.634 97.2378 104.25 98.1574 105.157 98.7626C105.836 99.2162 106.616 99.4514 107.412 99.4514C107.679 99.4514 107.947 99.4252 108.213 99.372L118.946 97.2337C120.011 97.0215 120.931 96.4056 121.536 95.4994C122.141 94.5929 122.358 93.5074 122.145 92.4427ZM16.6902 95.5398C16.658 95.5611 16.6057 95.5841 16.5422 95.5715L5.80942 93.4333C5.74548 93.4204 5.70649 93.3795 5.68494 93.3473C5.66338 93.3151 5.64037 93.2635 5.65321 93.1998L13.9939 51.3319C14.0067 51.2682 14.0477 51.2294 14.0796 51.2079C14.1053 51.1907 14.1441 51.1725 14.191 51.1725C14.2027 51.1725 14.215 51.1737 14.2274 51.1762L24.9602 53.3144C25.0641 53.335 25.137 53.4445 25.1166 53.5479L16.7759 95.4158C16.7633 95.4793 16.7224 95.5183 16.6902 95.5398ZM93.7724 105.721C92.9843 106.509 91.9308 106.943 90.8056 106.943C89.6804 106.943 88.6271 106.509 87.8395 105.722L69.5796 87.4619C68.8225 86.7051 67.5961 86.7053 66.8395 87.4619C66.0829 88.2185 66.0829 89.4452 66.8395 90.2018L85.0994 108.462C86.7352 110.097 86.7352 112.759 85.0997 114.394C84.3118 115.182 83.2581 115.616 82.1329 115.616C81.0077 115.616 79.9542 115.182 79.1668 114.395L59.8722 95.1C59.1154 94.3432 57.8889 94.3437 57.1321 95.1C56.3755 95.8566 56.3755 97.0833 57.1321 97.8399L71.696 112.404L71.7036 112.411C73.3318 114.047 73.3291 116.703 71.6963 118.336C70.0603 119.972 67.3989 119.972 65.7634 118.337L50.1653 102.739C49.4087 101.982 48.1823 101.982 47.4252 102.739C46.6686 103.495 46.6686 104.722 47.4252 105.478L54.6754 112.729C54.6758 112.729 54.6763 112.729 54.6766 112.73C55.4634 113.517 55.8969 114.57 55.8969 115.695C55.8969 116.82 55.4629 117.874 54.6751 118.661C53.0399 120.297 50.3785 120.297 48.7427 118.661L21.5192 91.4391L28.4423 56.6866H47.882L42.4606 61.2131C40.0535 63.2226 39.0199 65.9644 39.6244 68.7352L43.99 88.7404C44.1017 89.2512 44.4148 89.6954 44.8585 89.9717C45.3025 90.2483 45.8391 90.3338 46.3468 90.2085C51.6044 88.9128 55.1207 86.3776 57.0965 82.4578C58.8025 79.0732 59.1406 75.2276 59.499 71.1561C59.5445 70.6398 59.5901 70.1205 59.639 69.5998C59.6426 69.5739 59.6465 69.5531 59.6504 69.5366C60.343 69.2981 63.5368 69.9924 68.3369 74.3542L94.6201 101.021C95.3294 102.596 94.9986 104.495 93.7724 105.721ZM96.2367 97.1404L71.0598 71.5967C71.0354 71.572 71.0107 71.548 70.9847 71.5245C65.9383 66.9268 61.18 64.8324 58.2566 65.9232C56.8705 66.4403 55.9711 67.6204 55.7889 69.1617C55.787 69.177 55.7853 69.1922 55.7838 69.2077C55.7332 69.7461 55.686 70.2831 55.6388 70.8168C55.0062 78.0074 54.5361 83.3537 47.3325 85.8816L43.4105 67.9094C43.0184 66.1128 44.2029 64.8067 44.944 64.1879L59.336 52.1715C62.0422 49.9122 65.8533 50.0386 68.8193 52.4857C79.7466 61.5009 88.8994 60.8363 95.9376 58.6053L102.389 90.9886L96.2367 97.1404ZM118.313 93.3473C118.292 93.3795 118.253 93.4207 118.189 93.4333L107.456 95.5715C107.392 95.5841 107.34 95.5614 107.308 95.5398C107.276 95.5183 107.235 95.4793 107.222 95.4156L98.8813 53.5477C98.8685 53.4842 98.8915 53.4324 98.9131 53.4004C98.9346 53.3684 98.9736 53.3273 99.0376 53.3144L109.77 51.1762C109.783 51.1737 109.796 51.1725 109.807 51.1725C109.854 51.1725 109.893 51.1907 109.918 51.2079C109.951 51.2294 109.991 51.2684 110.004 51.3321L118.345 93.2003C118.358 93.2635 118.335 93.3151 118.313 93.3473Z" fill="#FFD700"/>
</svg>
