<svg xmlns="http://www.w3.org/2000/svg" xml:space="preserve" width="1.70666in" height="1.70666in" version="1.1" style="shape-rendering:geometricPrecision; text-rendering:geometricPrecision; image-rendering:optimizeQuality; fill-rule:evenodd; clip-rule:evenodd" viewBox="0 0 1707 1707" xmlns:xlink="http://www.w3.org/1999/xlink">
 <defs>
  <style type="text/css">
   
    .fil3 {fill:#1AA1FF}
    .fil0 {fill:#333333}
    .fil1 {fill:#58535A}
    .fil4 {fill:#7DD63E}
    .fil2 {fill:#FF9E5C}
   
  </style>
 </defs>
 <g id="Layer_x0020_1">
  <metadata id="CorelCorpID_0Corel-Layer"></metadata>
  <path class="fil0" d="M461 982l44 -166c-77,-58 -127,-150 -127,-254l0 -198c-19,-131 26,-240 127,-304 110,-71 270,-71 381,0 100,64 145,172 127,304l0 198c0,104 -51,196 -128,254l45 166 101 0c198,0 359,161 359,359l0 336c0,13 -10,23 -23,23l-1344 0c-13,0 -23,-10 -23,-23l0 -336c0,-198 161,-359 359,-359l102 0zm914 6c-183,0 -331,-149 -331,-332 0,-182 148,-331 331,-331 183,0 331,149 331,331 0,183 -148,332 -331,332zm0 -617c-157,0 -286,128 -286,285 0,158 128,286 286,286 158,0 286,-128 286,-286 0,-157 -128,-285 -286,-285zm-63 423c-6,0 -12,-2 -16,-7l-103 -103c-21,-21 11,-53 32,-32l87 87 213 -213c22,-22 54,11 33,32l-230 229c-4,5 -10,7 -16,7zm-425 204l-42 -156c-93,50 -206,50 -300,0l-42 156 192 192 192 -192zm-841 656l218 0 0 -356c0,-30 46,-30 46,0l0 356 771 0 0 -356c0,-30 45,-30 45,0l0 356 219 0 0 -313c0,-173 -141,-313 -314,-313l-109 0 -211 210c-8,9 -23,9 -32,0l-210 -210 -110 0c-173,0 -313,140 -313,313l0 313zm495 -868c2,1 4,2 5,4 43,28 94,44 149,44 150,0 272,-122 272,-272l0 -118c-4,-62 -40,-136 -189,-144 -21,28 -84,94 -186,73 0,0 -1,0 -2,0 -5,-2 -126,-36 -167,75l0 114c0,93 47,175 118,224zm-119 -432l1 11c55,-52 135,-49 179,-36 94,18 145,-63 145,-64 5,-7 12,-11 20,-10 108,3 169,37 203,78 27,-382 -599,-375 -548,21z" id="id_107" style="fill: rgb(247, 244, 40);"></path>
  <path class="fil1" d="M602 329c94,18 145,-63 145,-64 5,-7 12,-11 20,-10 108,3 169,37 203,78 27,-382 -599,-375 -548,21l1 11c55,-52 135,-49 179,-36z" id="id_108" style="fill: rgb(232, 231, 148);"></path>
  <path class="fil2" d="M778 300c-21,28 -84,94 -186,73 0,0 -1,0 -2,0 -5,-2 -126,-36 -167,75l0 114c0,93 47,175 118,224 2,1 4,2 5,4 43,28 94,44 149,44 150,0 272,-122 272,-272l0 -118c-4,-62 -40,-136 -189,-144z" id="id_109" style="fill: rgb(240, 245, 213);"></path>
  <path class="fil3" d="M1375 371c-157,0 -286,128 -286,285 0,158 128,286 286,286 158,0 286,-128 286,-286 0,-157 -128,-285 -286,-285zm-150 281l87 87 213 -213c22,-22 54,11 33,32l-230 229c-4,5 -10,7 -16,7 -6,0 -12,-2 -16,-7l-103 -103c-21,-21 11,-53 32,-32z" id="id_110" style="fill: rgb(255, 253, 127);"></path>
  <path class="fil4" d="M1031 1028l-109 0 -211 210c-8,9 -23,9 -32,0l-210 -210 -110 0c-173,0 -313,140 -313,313l0 313 218 0 0 -356c0,-30 46,-30 46,0l0 356 771 0 0 -356c0,-30 45,-30 45,0l0 356 219 0 0 -313c0,-173 -141,-313 -314,-313z" id="id_111" style="fill: rgb(247, 255, 204);"></path>
  <path class="fil2" d="M695 1190l192 -192 -42 -156c-93,50 -206,50 -300,0l-42 156 192 192z" id="id_112" style="fill: rgb(224, 223, 139);"></path>
 </g>
</svg>