<svg width="90" height="24" viewBox="0 0 90 24" fill="none" xmlns="http://www.w3.org/2000/svg">
<path d="M83.0137 9.44397C82.9571 9.44429 82.9009 9.43344 82.8485 9.41203C82.7961 9.39061 82.7484 9.35906 82.7082 9.31919L80.1265 6.73753C80.0455 6.65651 80 6.54662 80 6.43204C80 6.31745 80.0455 6.20756 80.1265 6.12654C80.2076 6.04552 80.3175 6 80.432 6C80.5466 6 80.6565 6.04552 80.7375 6.12654L83.0137 8.407L85.2898 6.13084C85.3722 6.06035 85.478 6.02352 85.5863 6.0277C85.6946 6.03188 85.7973 6.07678 85.874 6.15341C85.9506 6.23004 85.9955 6.33276 85.9997 6.44105C86.0039 6.54934 85.967 6.65522 85.8965 6.73753L83.3149 9.31919C83.2347 9.39868 83.1266 9.44349 83.0137 9.44397Z" fill="black"/>
<path d="M8 1C12.4107 1 16 4.21892 16 8.17646C16 13.7997 8.752 19.6057 8.44356 19.8496C8.31644 19.9501 8.15822 20 8 20C7.84178 20 7.68356 19.9501 7.55645 19.8504C7.248 19.6058 0 13.7997 0 8.17646C0 4.21892 3.58933 1 8 1ZM8 12.0833C10.4507 12.0833 12.4444 10.3076 12.4444 8.125C12.4444 5.94238 10.4507 4.16667 8 4.16667C5.54933 4.16667 3.55556 5.94238 3.55556 8.125C3.55556 10.3076 5.54933 12.0833 8 12.0833Z" fill="#FFD700"/>
<path d="M33.1426 12H31.0264L27.6104 6.05957H27.562C27.63 7.10872 27.6641 7.8571 27.6641 8.30469V12H26.1763V4.14746H28.2764L31.687 10.0288H31.7246C31.6709 9.0083 31.644 8.28678 31.644 7.86426V4.14746H33.1426V12ZM37.4824 7.04785C37.1351 7.04785 36.863 7.15885 36.666 7.38086C36.4691 7.59928 36.3563 7.91081 36.3276 8.31543H38.6265C38.6193 7.91081 38.5137 7.59928 38.3096 7.38086C38.1055 7.15885 37.8298 7.04785 37.4824 7.04785ZM37.7134 12.1074C36.7466 12.1074 35.991 11.8407 35.4468 11.3071C34.9025 10.7736 34.6304 10.0181 34.6304 9.04053C34.6304 8.03434 34.881 7.25732 35.3823 6.70947C35.8872 6.15804 36.5837 5.88232 37.4717 5.88232C38.3203 5.88232 38.981 6.12402 39.4536 6.60742C39.9263 7.09082 40.1626 7.75863 40.1626 8.61084V9.40576H36.29C36.3079 9.87126 36.4458 10.2347 36.7036 10.4961C36.9614 10.7575 37.3231 10.8882 37.7886 10.8882C38.1502 10.8882 38.4922 10.8506 38.8145 10.7754C39.1367 10.7002 39.4733 10.5802 39.8242 10.4155V11.6831C39.5378 11.8263 39.2316 11.932 38.9058 12C38.5799 12.0716 38.1825 12.1074 37.7134 12.1074ZM44.0244 10.8022C44.3109 10.8022 44.6546 10.7396 45.0557 10.6143V11.8335C44.6475 12.0161 44.1462 12.1074 43.5518 12.1074C42.8965 12.1074 42.4185 11.9427 42.1177 11.6133C41.8205 11.2803 41.6719 10.7826 41.6719 10.1201V7.2251H40.8877V6.53223L41.79 5.98438L42.2627 4.7168H43.3101V5.99512H44.9912V7.2251H43.3101V10.1201C43.3101 10.3529 43.3745 10.5247 43.5034 10.6357C43.6359 10.7467 43.8096 10.8022 44.0244 10.8022ZM48.8047 10.8022C49.0911 10.8022 49.4349 10.7396 49.8359 10.6143V11.8335C49.4277 12.0161 48.9264 12.1074 48.332 12.1074C47.6768 12.1074 47.1987 11.9427 46.8979 11.6133C46.6007 11.2803 46.4521 10.7826 46.4521 10.1201V7.2251H45.668V6.53223L46.5703 5.98438L47.043 4.7168H48.0903V5.99512H49.7715V7.2251H48.0903V10.1201C48.0903 10.3529 48.1548 10.5247 48.2837 10.6357C48.4162 10.7467 48.5898 10.8022 48.8047 10.8022ZM52.3604 8.98682C52.3604 9.58122 52.457 10.0306 52.6504 10.335C52.8473 10.6393 53.166 10.7915 53.6064 10.7915C54.0433 10.7915 54.3566 10.6411 54.5464 10.3403C54.7397 10.036 54.8364 9.5848 54.8364 8.98682C54.8364 8.39242 54.7397 7.94661 54.5464 7.64941C54.353 7.35221 54.0361 7.20361 53.5957 7.20361C53.1589 7.20361 52.8438 7.35221 52.6504 7.64941C52.457 7.94303 52.3604 8.38883 52.3604 8.98682ZM56.5122 8.98682C56.5122 9.96436 56.2544 10.7288 55.7388 11.2803C55.2231 11.8317 54.5052 12.1074 53.585 12.1074C53.0085 12.1074 52.5 11.9821 52.0596 11.7314C51.6191 11.4772 51.2808 11.1138 51.0444 10.6411C50.8081 10.1685 50.6899 9.61702 50.6899 8.98682C50.6899 8.0057 50.946 7.243 51.458 6.69873C51.9701 6.15446 52.6898 5.88232 53.6172 5.88232C54.1937 5.88232 54.7021 6.00765 55.1426 6.2583C55.583 6.50895 55.9214 6.86882 56.1577 7.33789C56.394 7.80697 56.5122 8.35661 56.5122 8.98682ZM59.1709 8.98682C59.1709 9.58122 59.2676 10.0306 59.4609 10.335C59.6579 10.6393 59.9766 10.7915 60.417 10.7915C60.8538 10.7915 61.1672 10.6411 61.3569 10.3403C61.5503 10.036 61.647 9.5848 61.647 8.98682C61.647 8.39242 61.5503 7.94661 61.3569 7.64941C61.1636 7.35221 60.8467 7.20361 60.4062 7.20361C59.9694 7.20361 59.6543 7.35221 59.4609 7.64941C59.2676 7.94303 59.1709 8.38883 59.1709 8.98682ZM63.3228 8.98682C63.3228 9.96436 63.0649 10.7288 62.5493 11.2803C62.0337 11.8317 61.3158 12.1074 60.3955 12.1074C59.819 12.1074 59.3105 11.9821 58.8701 11.7314C58.4297 11.4772 58.0913 11.1138 57.855 10.6411C57.6187 10.1685 57.5005 9.61702 57.5005 8.98682C57.5005 8.0057 57.7565 7.243 58.2686 6.69873C58.7806 6.15446 59.5003 5.88232 60.4277 5.88232C61.0042 5.88232 61.5127 6.00765 61.9531 6.2583C62.3936 6.50895 62.7319 6.86882 62.9683 7.33789C63.2046 7.80697 63.3228 8.35661 63.3228 8.98682ZM68.0278 5.88232C68.2498 5.88232 68.4342 5.89844 68.5811 5.93066L68.4575 7.4668C68.325 7.43099 68.1639 7.41309 67.9741 7.41309C67.4513 7.41309 67.0431 7.54736 66.7495 7.81592C66.4595 8.08447 66.3145 8.46045 66.3145 8.94385V12H64.6763V5.99512H65.917L66.1587 7.00488H66.2393C66.4255 6.66829 66.6761 6.39795 66.9912 6.19385C67.3099 5.98617 67.6554 5.88232 68.0278 5.88232Z" fill="black"/>
<path d="M29.6523 22H29.25L25.8672 16.9297H25.8359C25.8672 17.5339 25.8828 17.9896 25.8828 18.2969V22H25.5V16.2891H25.8984L29.2773 21.3516H29.3008C29.2773 20.8828 29.2656 20.4375 29.2656 20.0156V16.2891H29.6523V22ZM32.8906 22.0781C32.2734 22.0781 31.7917 21.888 31.4453 21.5078C31.1016 21.1276 30.9297 20.5951 30.9297 19.9102C30.9297 19.2331 31.0964 18.6914 31.4297 18.2852C31.763 17.8763 32.2122 17.6719 32.7773 17.6719C33.2773 17.6719 33.6719 17.8464 33.9609 18.1953C34.25 18.5443 34.3945 19.0182 34.3945 19.6172V19.9297H31.3359C31.3411 20.513 31.4766 20.9583 31.7422 21.2656C32.0104 21.5729 32.3932 21.7266 32.8906 21.7266C33.1328 21.7266 33.3451 21.7096 33.5273 21.6758C33.7122 21.6419 33.9453 21.569 34.2266 21.457V21.8086C33.987 21.9128 33.7656 21.9831 33.5625 22.0195C33.3594 22.0586 33.1354 22.0781 32.8906 22.0781ZM32.7773 18.0156C32.3685 18.0156 32.0404 18.151 31.793 18.4219C31.5456 18.6901 31.401 19.0781 31.3594 19.5859H33.9844C33.9844 19.0938 33.8776 18.7096 33.6641 18.4336C33.4505 18.1549 33.1549 18.0156 32.7773 18.0156ZM36.6875 21.7344C36.9323 21.7344 37.1458 21.7135 37.3281 21.6719V21.9844C37.1406 22.0469 36.9245 22.0781 36.6797 22.0781C36.3047 22.0781 36.0273 21.9779 35.8477 21.7773C35.6706 21.5768 35.582 21.2617 35.582 20.832V18.0898H34.9531V17.8633L35.582 17.6875L35.7773 16.7266H35.9766V17.7539H37.2227V18.0898H35.9766V20.7773C35.9766 21.1029 36.0339 21.3438 36.1484 21.5C36.263 21.6562 36.4427 21.7344 36.6875 21.7344ZM39.3672 21.7344C39.612 21.7344 39.8255 21.7135 40.0078 21.6719V21.9844C39.8203 22.0469 39.6042 22.0781 39.3594 22.0781C38.9844 22.0781 38.707 21.9779 38.5273 21.7773C38.3503 21.5768 38.2617 21.2617 38.2617 20.832V18.0898H37.6328V17.8633L38.2617 17.6875L38.457 16.7266H38.6562V17.7539H39.9023V18.0898H38.6562V20.7773C38.6562 21.1029 38.7135 21.3438 38.8281 21.5C38.9427 21.6562 39.1224 21.7344 39.3672 21.7344ZM44.4375 19.8711C44.4375 20.5638 44.2695 21.1055 43.9336 21.4961C43.5977 21.8841 43.1341 22.0781 42.543 22.0781C42.1706 22.0781 41.8424 21.9883 41.5586 21.8086C41.2747 21.6289 41.0573 21.3711 40.9062 21.0352C40.7552 20.6992 40.6797 20.3112 40.6797 19.8711C40.6797 19.1784 40.8477 18.6393 41.1836 18.2539C41.5195 17.8659 41.9805 17.6719 42.5664 17.6719C43.1497 17.6719 43.6068 17.8685 43.9375 18.2617C44.2708 18.6523 44.4375 19.1888 44.4375 19.8711ZM41.0859 19.8711C41.0859 20.4544 41.2135 20.9102 41.4688 21.2383C41.7266 21.5638 42.0898 21.7266 42.5586 21.7266C43.0273 21.7266 43.3893 21.5638 43.6445 21.2383C43.9023 20.9102 44.0312 20.4544 44.0312 19.8711C44.0312 19.2852 43.901 18.8307 43.6406 18.5078C43.3828 18.1849 43.0195 18.0234 42.5508 18.0234C42.082 18.0234 41.7201 18.1849 41.4648 18.5078C41.2122 18.8281 41.0859 19.2826 41.0859 19.8711ZM49.125 19.8711C49.125 20.5638 48.957 21.1055 48.6211 21.4961C48.2852 21.8841 47.8216 22.0781 47.2305 22.0781C46.8581 22.0781 46.5299 21.9883 46.2461 21.8086C45.9622 21.6289 45.7448 21.3711 45.5938 21.0352C45.4427 20.6992 45.3672 20.3112 45.3672 19.8711C45.3672 19.1784 45.5352 18.6393 45.8711 18.2539C46.207 17.8659 46.668 17.6719 47.2539 17.6719C47.8372 17.6719 48.2943 17.8685 48.625 18.2617C48.9583 18.6523 49.125 19.1888 49.125 19.8711ZM45.7734 19.8711C45.7734 20.4544 45.901 20.9102 46.1562 21.2383C46.4141 21.5638 46.7773 21.7266 47.2461 21.7266C47.7148 21.7266 48.0768 21.5638 48.332 21.2383C48.5898 20.9102 48.7188 20.4544 48.7188 19.8711C48.7188 19.2852 48.5885 18.8307 48.3281 18.5078C48.0703 18.1849 47.707 18.0234 47.2383 18.0234C46.7695 18.0234 46.4076 18.1849 46.1523 18.5078C45.8997 18.8281 45.7734 19.2826 45.7734 19.8711ZM51.9727 17.6719C52.1523 17.6719 52.3451 17.6901 52.5508 17.7266L52.4766 18.0977C52.2995 18.0534 52.1159 18.0312 51.9258 18.0312C51.5638 18.0312 51.2669 18.1849 51.0352 18.4922C50.8034 18.7995 50.6875 19.1875 50.6875 19.6562V22H50.3008V17.7539H50.6289L50.668 18.5195H50.6953C50.8698 18.207 51.056 17.9883 51.2539 17.8633C51.4518 17.7357 51.6914 17.6719 51.9727 17.6719ZM53.8594 21.0703L53.9062 21.1523C53.7109 21.8424 53.4844 22.4688 53.2266 23.0312H52.9727C53.1732 22.3151 53.3164 21.6615 53.4023 21.0703H53.8594ZM59.8242 22L57.6953 16.7266H57.6641C57.6849 17.0495 57.6953 17.3802 57.6953 17.7188V22H57.3125V16.2891H57.9297L59.9531 21.3125H59.9766L62 16.2891H62.6016V22H62.1992V17.6719C62.1992 17.3698 62.2148 17.0573 62.2461 16.7344H62.2148L60.0781 22H59.8242ZM66.6992 22L66.6016 21.3281H66.5703C66.3568 21.6016 66.1367 21.7956 65.9102 21.9102C65.6862 22.0221 65.4206 22.0781 65.1133 22.0781C64.6966 22.0781 64.3724 21.9714 64.1406 21.7578C63.9089 21.5443 63.793 21.2487 63.793 20.8711C63.793 20.457 63.9648 20.1354 64.3086 19.9062C64.6549 19.6771 65.1549 19.556 65.8086 19.543L66.6172 19.5195V19.2383C66.6172 18.8346 66.5352 18.5299 66.3711 18.3242C66.207 18.1185 65.9427 18.0156 65.5781 18.0156C65.1849 18.0156 64.7773 18.125 64.3555 18.3438L64.2109 18.0078C64.6771 17.7891 65.138 17.6797 65.5938 17.6797C66.0599 17.6797 66.4076 17.8008 66.6367 18.043C66.8685 18.2852 66.9844 18.6628 66.9844 19.1758V22H66.6992ZM65.1367 21.7266C65.5898 21.7266 65.9466 21.5977 66.207 21.3398C66.4701 21.0794 66.6016 20.7188 66.6016 20.2578V19.8398L65.8594 19.8711C65.263 19.8997 64.8372 19.9935 64.582 20.1523C64.3294 20.3086 64.2031 20.5534 64.2031 20.8867C64.2031 21.1523 64.2839 21.3594 64.4453 21.5078C64.6094 21.6536 64.8398 21.7266 65.1367 21.7266ZM70.0352 17.6719C70.2148 17.6719 70.4076 17.6901 70.6133 17.7266L70.5391 18.0977C70.362 18.0534 70.1784 18.0312 69.9883 18.0312C69.6263 18.0312 69.3294 18.1849 69.0977 18.4922C68.8659 18.7995 68.75 19.1875 68.75 19.6562V22H68.3633V17.7539H68.6914L68.7305 18.5195H68.7578C68.9323 18.207 69.1185 17.9883 69.3164 17.8633C69.5143 17.7357 69.7539 17.6719 70.0352 17.6719ZM74.0586 22L73.9609 21.3281H73.9297C73.7161 21.6016 73.4961 21.7956 73.2695 21.9102C73.0456 22.0221 72.7799 22.0781 72.4727 22.0781C72.056 22.0781 71.7318 21.9714 71.5 21.7578C71.2682 21.5443 71.1523 21.2487 71.1523 20.8711C71.1523 20.457 71.3242 20.1354 71.668 19.9062C72.0143 19.6771 72.5143 19.556 73.168 19.543L73.9766 19.5195V19.2383C73.9766 18.8346 73.8945 18.5299 73.7305 18.3242C73.5664 18.1185 73.3021 18.0156 72.9375 18.0156C72.5443 18.0156 72.1367 18.125 71.7148 18.3438L71.5703 18.0078C72.0365 17.7891 72.4974 17.6797 72.9531 17.6797C73.4193 17.6797 73.7669 17.8008 73.9961 18.043C74.2279 18.2852 74.3438 18.6628 74.3438 19.1758V22H74.0586ZM72.4961 21.7266C72.9492 21.7266 73.306 21.5977 73.5664 21.3398C73.8294 21.0794 73.9609 20.7188 73.9609 20.2578V19.8398L73.2188 19.8711C72.6224 19.8997 72.1966 19.9935 71.9414 20.1523C71.6888 20.3086 71.5625 20.5534 71.5625 20.8867C71.5625 21.1523 71.6432 21.3594 71.8047 21.5078C71.9688 21.6536 72.1992 21.7266 72.4961 21.7266ZM77.2773 17.6719C77.5846 17.6719 77.8503 17.7279 78.0742 17.8398C78.2982 17.9518 78.4987 18.1432 78.6758 18.4141H78.6992C78.6836 18.0859 78.6758 17.7643 78.6758 17.4492V15.9219H79.0586V22H78.8047L78.707 21.3516H78.6758C78.3529 21.8359 77.8893 22.0781 77.2852 22.0781C76.6992 22.0781 76.2513 21.8958 75.9414 21.5312C75.6315 21.1667 75.4766 20.6354 75.4766 19.9375C75.4766 19.2031 75.6302 18.6419 75.9375 18.2539C76.2448 17.8659 76.6914 17.6719 77.2773 17.6719ZM77.2773 18.0234C76.8138 18.0234 76.4648 18.1862 76.2305 18.5117C75.9987 18.8372 75.8828 19.3099 75.8828 19.9297C75.8828 21.1328 76.3503 21.7344 77.2852 21.7344C77.7643 21.7344 78.1159 21.5951 78.3398 21.3164C78.5638 21.0378 78.6758 20.5781 78.6758 19.9375V19.8711C78.6758 19.2148 78.5651 18.7435 78.3438 18.457C78.125 18.168 77.7695 18.0234 77.2773 18.0234ZM80.8242 17.7539V20.5039C80.8242 20.931 80.9141 21.2422 81.0938 21.4375C81.2734 21.6302 81.5521 21.7266 81.9297 21.7266C82.4349 21.7266 82.806 21.599 83.043 21.3438C83.2826 21.0885 83.4023 20.6732 83.4023 20.0977V17.7539H83.7852V22H83.457L83.3867 21.4141H83.3633C83.0872 21.8568 82.5964 22.0781 81.8906 22.0781C80.9245 22.0781 80.4414 21.5612 80.4414 20.5273V17.7539H80.8242ZM85.1289 21.6953C85.1289 21.4401 85.2331 21.3125 85.4414 21.3125C85.6549 21.3125 85.7617 21.4401 85.7617 21.6953C85.7617 21.9505 85.6549 22.0781 85.4414 22.0781C85.2331 22.0781 85.1289 21.9505 85.1289 21.6953ZM87.0352 21.6953C87.0352 21.4401 87.1393 21.3125 87.3477 21.3125C87.5612 21.3125 87.668 21.4401 87.668 21.6953C87.668 21.9505 87.5612 22.0781 87.3477 22.0781C87.1393 22.0781 87.0352 21.9505 87.0352 21.6953Z" fill="black"/>
</svg>
