<svg width="16" height="18" viewBox="0 0 16 18" fill="none" xmlns="http://www.w3.org/2000/svg">
<path d="M6.2419 14.8388C6.2419 16.3709 7.48401 17.6129 9.01618 17.6129C10.5483 17.6129 11.7903 16.3709 11.7903 14.8388C11.7903 13.3066 10.5483 12.0645 9.01618 12.0645C7.48401 12.0645 6.2419 13.3066 6.2419 14.8388Z" fill="#404042"/>
<path d="M4.15578 9.2356C6.50693 8.89983 8.32254 6.8781 8.32254 4.43553C8.32254 3.74189 8.17421 3.08382 7.91134 2.48657C8.26641 2.40339 8.63532 2.35488 9.01617 2.35488C11.6932 2.35488 13.871 4.53255 13.871 7.20968V9.14327C13.871 10.5158 14.4723 11.8114 15.5272 12.7033C15.7969 12.9335 15.9516 13.2699 15.9516 13.625C15.9516 14.2943 15.4072 14.8388 14.738 14.8388H3.29439C2.62502 14.8388 2.0806 14.2943 2.0806 13.625C2.0806 13.2699 2.23528 12.9335 2.51199 12.697C3.53568 11.8308 4.12937 10.5733 4.15578 9.2356Z" fill="#404042"/>
<path d="M-9.53674e-07 4.43553C-9.53674e-07 6.35071 1.55261 7.90319 3.46779 7.90319C5.38296 7.90319 6.93558 6.35071 6.93558 4.43553C6.93558 2.52035 5.38296 0.967743 3.46779 0.967743C1.55261 0.967743 -9.53674e-07 2.52035 -9.53674e-07 4.43553Z" fill="#F44336"/>
</svg>
