<svg width="132" height="24" viewBox="0 0 132 24" fill="none" xmlns="http://www.w3.org/2000/svg">
<path d="M42.0734 9.81563C42.0734 10.412 41.8781 10.869 41.4875 11.1867C41.0969 11.5044 40.5409 11.6633 39.8195 11.6633H39.2258V13.8H38.2922V8.08907H39.9367C40.6503 8.08907 41.1841 8.2349 41.5383 8.52657C41.8951 8.81823 42.0734 9.24792 42.0734 9.81563ZM39.2258 10.8781H39.7219C40.201 10.8781 40.5526 10.7948 40.7766 10.6281C41.0005 10.4615 41.1125 10.201 41.1125 9.84688C41.1125 9.51875 41.0122 9.27396 40.8117 9.1125C40.6112 8.95104 40.2987 8.87032 39.8742 8.87032H39.2258V10.8781ZM46.9484 11.632C46.9484 12.3378 46.7674 12.8885 46.4055 13.2844C46.0435 13.6802 45.5396 13.8781 44.8937 13.8781C44.4901 13.8781 44.1333 13.787 43.8234 13.6047C43.5135 13.4224 43.2753 13.1607 43.1086 12.8195C42.9419 12.4784 42.8586 12.0826 42.8586 11.632C42.8586 10.9315 43.0383 10.3846 43.3977 9.99141C43.757 9.59818 44.2635 9.40157 44.9172 9.40157C45.5422 9.40157 46.037 9.60339 46.4016 10.007C46.7661 10.4081 46.9484 10.9497 46.9484 11.632ZM43.8039 11.632C43.8039 12.6294 44.1724 13.1281 44.9094 13.1281C45.6385 13.1281 46.0031 12.6294 46.0031 11.632C46.0031 10.6451 45.6359 10.1516 44.9016 10.1516C44.5161 10.1516 44.2362 10.2792 44.0617 10.5344C43.8898 10.7896 43.8039 11.1555 43.8039 11.632ZM50.1984 9.40157C50.3833 9.40157 50.5357 9.41459 50.6555 9.44063L50.5656 10.2961C50.4354 10.2648 50.3 10.2492 50.1594 10.2492C49.7922 10.2492 49.494 10.369 49.2648 10.6086C49.0383 10.8482 48.925 11.1594 48.925 11.5422V13.8H48.007V9.47969H48.7258L48.8469 10.2414H48.8937C49.037 9.9836 49.2232 9.77917 49.4523 9.62813C49.6841 9.47709 49.9328 9.40157 50.1984 9.40157ZM54.3625 12.5695C54.3625 12.9914 54.2089 13.3156 53.9016 13.5422C53.5943 13.7661 53.1542 13.8781 52.5812 13.8781C52.0057 13.8781 51.5435 13.7909 51.1945 13.6164V12.8234C51.7023 13.0578 52.175 13.175 52.6125 13.175C53.1776 13.175 53.4602 13.0044 53.4602 12.6633C53.4602 12.5539 53.4289 12.4628 53.3664 12.3898C53.3039 12.3169 53.201 12.2414 53.0578 12.1633C52.9146 12.0852 52.7154 11.9966 52.4602 11.8977C51.9628 11.705 51.6255 11.5122 51.4484 11.3195C51.274 11.1268 51.1867 10.8768 51.1867 10.5695C51.1867 10.1997 51.3352 9.91328 51.632 9.71016C51.9315 9.50443 52.3378 9.40157 52.8508 9.40157C53.3586 9.40157 53.8391 9.50443 54.2922 9.71016L53.9953 10.4016C53.5292 10.2089 53.1372 10.1125 52.8195 10.1125C52.3352 10.1125 52.093 10.2505 52.093 10.5266C52.093 10.662 52.1555 10.7766 52.2805 10.8703C52.4081 10.9641 52.6841 11.093 53.1086 11.257C53.4654 11.3951 53.7245 11.5214 53.8859 11.6359C54.0474 11.7505 54.1672 11.8833 54.2453 12.0344C54.3234 12.1828 54.3625 12.3612 54.3625 12.5695ZM57.1008 13.8781C56.4471 13.8781 55.9497 13.688 55.6086 13.3078C55.2701 12.925 55.1008 12.3768 55.1008 11.6633C55.1008 10.9367 55.2779 10.3781 55.632 9.9875C55.9888 9.59688 56.5031 9.40157 57.175 9.40157C57.6307 9.40157 58.0409 9.4862 58.4055 9.65547L58.1281 10.3938C57.7401 10.2427 57.4198 10.1672 57.1672 10.1672C56.4198 10.1672 56.0461 10.6633 56.0461 11.6555C56.0461 12.1398 56.1385 12.5044 56.3234 12.7492C56.5109 12.9914 56.7844 13.1125 57.1437 13.1125C57.5526 13.1125 57.9393 13.0109 58.3039 12.8078V13.6086C58.1398 13.705 57.9641 13.774 57.7766 13.8156C57.5917 13.8573 57.3664 13.8781 57.1008 13.8781ZM63.1203 13.8H62.1984V11.1438C62.1984 10.8104 62.1307 10.5617 61.9953 10.3977C61.8625 10.2336 61.6503 10.1516 61.3586 10.1516C60.9732 10.1516 60.6893 10.2675 60.507 10.4992C60.3273 10.7284 60.2375 11.1138 60.2375 11.6555V13.8H59.3195V7.72188H60.2375V9.26485C60.2375 9.51224 60.2219 9.77657 60.1906 10.0578H60.2492C60.3742 9.84948 60.5474 9.68802 60.7687 9.57344C60.9927 9.45886 61.2531 9.40157 61.55 9.40157C62.5969 9.40157 63.1203 9.92891 63.1203 10.9836V13.8ZM66.2844 13.8781C65.6125 13.8781 65.0865 13.6828 64.7062 13.2922C64.3286 12.899 64.1398 12.3586 64.1398 11.6711C64.1398 10.9654 64.3156 10.4107 64.6672 10.007C65.0187 9.60339 65.5018 9.40157 66.1164 9.40157C66.6867 9.40157 67.1372 9.57474 67.468 9.9211C67.7987 10.2675 67.9641 10.744 67.9641 11.3508V11.8469H65.0852C65.0982 12.2661 65.2115 12.5891 65.425 12.8156C65.6385 13.0396 65.9393 13.1516 66.3273 13.1516C66.5826 13.1516 66.8195 13.1281 67.0383 13.0813C67.2596 13.0318 67.4966 12.951 67.7492 12.8391V13.5852C67.5253 13.6919 67.2987 13.7675 67.0695 13.8117C66.8404 13.856 66.5786 13.8781 66.2844 13.8781ZM66.1164 10.0969C65.8247 10.0969 65.5904 10.1893 65.4133 10.3742C65.2388 10.5591 65.1346 10.8286 65.1008 11.1828H67.0617C67.0565 10.826 66.9706 10.5565 66.8039 10.3742C66.6372 10.1893 66.4081 10.0969 66.1164 10.0969ZM74.9641 9.81563C74.9641 10.412 74.7687 10.869 74.3781 11.1867C73.9875 11.5044 73.4315 11.6633 72.7102 11.6633H72.1164V13.8H71.1828V8.08907H72.8273C73.5409 8.08907 74.0747 8.2349 74.4289 8.52657C74.7857 8.81823 74.9641 9.24792 74.9641 9.81563ZM72.1164 10.8781H72.6125C73.0917 10.8781 73.4432 10.7948 73.6672 10.6281C73.8911 10.4615 74.0031 10.201 74.0031 9.84688C74.0031 9.51875 73.9029 9.27396 73.7023 9.1125C73.5018 8.95104 73.1893 8.87032 72.7648 8.87032H72.1164V10.8781ZM78.7102 13.8L78.5266 13.1984H78.4953C78.287 13.4615 78.0773 13.6411 77.8664 13.7375C77.6555 13.8313 77.3846 13.8781 77.0539 13.8781C76.6294 13.8781 76.2974 13.7635 76.0578 13.5344C75.8208 13.3052 75.7023 12.981 75.7023 12.5617C75.7023 12.1164 75.8677 11.7805 76.1984 11.5539C76.5292 11.3273 77.0331 11.2036 77.7102 11.1828L78.4562 11.1594V10.9289C78.4562 10.6529 78.3911 10.4471 78.2609 10.3117C78.1333 10.1737 77.9341 10.1047 77.6633 10.1047C77.4419 10.1047 77.2297 10.1372 77.0266 10.2023C76.8234 10.2675 76.6281 10.3443 76.4406 10.4328L76.1437 9.77657C76.3781 9.65417 76.6346 9.56172 76.9133 9.49922C77.1919 9.43412 77.4549 9.40157 77.7023 9.40157C78.2518 9.40157 78.6659 9.52136 78.9445 9.76094C79.2258 10.0005 79.3664 10.3768 79.3664 10.8898V13.8H78.7102ZM77.343 13.175C77.6763 13.175 77.9432 13.0826 78.1437 12.8977C78.3469 12.7102 78.4484 12.4484 78.4484 12.1125V11.7375L77.8937 11.7609C77.4615 11.7766 77.1464 11.8495 76.9484 11.9797C76.7531 12.1073 76.6555 12.3039 76.6555 12.5695C76.6555 12.7622 76.7128 12.912 76.8273 13.0188C76.9419 13.1229 77.1138 13.175 77.343 13.175ZM84.4484 13.8H83.5266V11.1438C83.5266 10.8104 83.4589 10.5617 83.3234 10.3977C83.1906 10.2336 82.9784 10.1516 82.6867 10.1516C82.2987 10.1516 82.0148 10.2661 81.8352 10.4953C81.6555 10.7245 81.5656 11.1086 81.5656 11.6477V13.8H80.6477V9.47969H81.3664L81.4953 10.0461H81.5422C81.6724 9.84037 81.8573 9.68151 82.0969 9.56953C82.3365 9.45756 82.6021 9.40157 82.8937 9.40157C83.9302 9.40157 84.4484 9.92891 84.4484 10.9836V13.8ZM88.4289 13.8L88.2453 13.1984H88.2141C88.0057 13.4615 87.7961 13.6411 87.5852 13.7375C87.3742 13.8313 87.1034 13.8781 86.7727 13.8781C86.3482 13.8781 86.0161 13.7635 85.7766 13.5344C85.5396 13.3052 85.4211 12.981 85.4211 12.5617C85.4211 12.1164 85.5865 11.7805 85.9172 11.5539C86.2479 11.3273 86.7518 11.2036 87.4289 11.1828L88.175 11.1594V10.9289C88.175 10.6529 88.1099 10.4471 87.9797 10.3117C87.8521 10.1737 87.6529 10.1047 87.382 10.1047C87.1607 10.1047 86.9484 10.1372 86.7453 10.2023C86.5422 10.2675 86.3469 10.3443 86.1594 10.4328L85.8625 9.77657C86.0969 9.65417 86.3534 9.56172 86.632 9.49922C86.9107 9.43412 87.1737 9.40157 87.4211 9.40157C87.9706 9.40157 88.3846 9.52136 88.6633 9.76094C88.9445 10.0005 89.0852 10.3768 89.0852 10.8898V13.8H88.4289ZM87.0617 13.175C87.3951 13.175 87.662 13.0826 87.8625 12.8977C88.0656 12.7102 88.1672 12.4484 88.1672 12.1125V11.7375L87.6125 11.7609C87.1802 11.7766 86.8651 11.8495 86.6672 11.9797C86.4719 12.1073 86.3742 12.3039 86.3742 12.5695C86.3742 12.7622 86.4315 12.912 86.5461 13.0188C86.6607 13.1229 86.8326 13.175 87.0617 13.175ZM94.007 13.8H93.0852V11.1359C93.0852 10.8052 93.0227 10.5591 92.8977 10.3977C92.7727 10.2336 92.5773 10.1516 92.3117 10.1516C91.9576 10.1516 91.6971 10.2675 91.5305 10.4992C91.3664 10.7284 91.2844 11.1112 91.2844 11.6477V13.8H90.3664V9.47969H91.0852L91.2141 10.0461H91.2609C91.3807 9.84037 91.5539 9.68151 91.7805 9.56953C92.0096 9.45756 92.2609 9.40157 92.5344 9.40157C93.1984 9.40157 93.6385 9.62813 93.8547 10.0813H93.9172C94.0448 9.86771 94.2245 9.70104 94.4563 9.58125C94.688 9.46146 94.9536 9.40157 95.2531 9.40157C95.7688 9.40157 96.1438 9.53177 96.3781 9.79219C96.6151 10.0526 96.7336 10.4497 96.7336 10.9836V13.8H95.8156V11.1359C95.8156 10.8052 95.7518 10.5591 95.6242 10.3977C95.4992 10.2336 95.3039 10.1516 95.0383 10.1516C94.6815 10.1516 94.4198 10.2635 94.2531 10.4875C94.0891 10.7089 94.007 11.05 94.007 11.5109V13.8ZM99.9016 13.8781C99.2297 13.8781 98.7036 13.6828 98.3234 13.2922C97.9458 12.899 97.757 12.3586 97.757 11.6711C97.757 10.9654 97.9328 10.4107 98.2844 10.007C98.6359 9.60339 99.119 9.40157 99.7336 9.40157C100.304 9.40157 100.754 9.57474 101.085 9.9211C101.416 10.2675 101.581 10.744 101.581 11.3508V11.8469H98.7023C98.7154 12.2661 98.8286 12.5891 99.0422 12.8156C99.2557 13.0396 99.5565 13.1516 99.9445 13.1516C100.2 13.1516 100.437 13.1281 100.655 13.0813C100.877 13.0318 101.114 12.951 101.366 12.8391V13.5852C101.142 13.6919 100.916 13.7675 100.687 13.8117C100.458 13.856 100.196 13.8781 99.9016 13.8781ZM99.7336 10.0969C99.4419 10.0969 99.2076 10.1893 99.0305 10.3742C98.856 10.5591 98.7518 10.8286 98.718 11.1828H100.679C100.674 10.826 100.588 10.5565 100.421 10.3742C100.254 10.1893 100.025 10.0969 99.7336 10.0969ZM104.816 9.40157C105.001 9.40157 105.153 9.41459 105.273 9.44063L105.183 10.2961C105.053 10.2648 104.917 10.2492 104.777 10.2492C104.409 10.2492 104.111 10.369 103.882 10.6086C103.655 10.8482 103.542 11.1594 103.542 11.5422V13.8H102.624V9.47969H103.343L103.464 10.2414H103.511C103.654 9.9836 103.84 9.77917 104.07 9.62813C104.301 9.47709 104.55 9.40157 104.816 9.40157ZM108.78 13.8L108.597 13.1984H108.566C108.357 13.4615 108.148 13.6411 107.937 13.7375C107.726 13.8313 107.455 13.8781 107.124 13.8781C106.7 13.8781 106.368 13.7635 106.128 13.5344C105.891 13.3052 105.773 12.981 105.773 12.5617C105.773 12.1164 105.938 11.7805 106.269 11.5539C106.599 11.3273 107.103 11.2036 107.78 11.1828L108.527 11.1594V10.9289C108.527 10.6529 108.461 10.4471 108.331 10.3117C108.204 10.1737 108.004 10.1047 107.734 10.1047C107.512 10.1047 107.3 10.1372 107.097 10.2023C106.894 10.2675 106.698 10.3443 106.511 10.4328L106.214 9.77657C106.448 9.65417 106.705 9.56172 106.984 9.49922C107.262 9.43412 107.525 9.40157 107.773 9.40157C108.322 9.40157 108.736 9.52136 109.015 9.76094C109.296 10.0005 109.437 10.3768 109.437 10.8898V13.8H108.78ZM107.413 13.175C107.747 13.175 108.014 13.0826 108.214 12.8977C108.417 12.7102 108.519 12.4484 108.519 12.1125V11.7375L107.964 11.7609C107.532 11.7766 107.217 11.8495 107.019 11.9797C106.823 12.1073 106.726 12.3039 106.726 12.5695C106.726 12.7622 106.783 12.912 106.898 13.0188C107.012 13.1229 107.184 13.175 107.413 13.175Z" fill="black"/>
<path d="M128.416 14.9328C128.348 14.9332 128.281 14.9201 128.218 14.8944C128.155 14.8687 128.098 14.8309 128.05 14.783L124.952 11.685C124.855 11.5878 124.8 11.4559 124.8 11.3184C124.8 11.1809 124.855 11.0491 124.952 10.9519C125.049 10.8546 125.181 10.8 125.318 10.8C125.456 10.8 125.588 10.8546 125.685 10.9519L128.416 13.6884L131.148 10.957C131.247 10.8724 131.374 10.8282 131.504 10.8332C131.634 10.8383 131.757 10.8921 131.849 10.9841C131.941 11.076 131.995 11.1993 132 11.3293C132.005 11.4592 131.96 11.5863 131.876 11.685L128.778 14.783C128.682 14.8784 128.552 14.9322 128.416 14.9328Z" fill="black"/>
<path d="M1.2 10.416C1.344 10.176 1.584 10.032 1.824 9.984C3.168 9.792 4.944 8.688 5.76 8.496C7.536 8.064 12 7.296 13.68 7.92C16.416 9.024 17.088 9.792 17.568 9.984C19.296 10.176 20.832 10.512 22.224 10.944C22.416 11.04 22.56 11.136 22.704 11.28C23.376 12 23.616 12.864 23.52 13.872C23.424 14.592 22.8 15.12 22.08 15.12C22.176 14.832 22.224 14.544 22.224 14.256C22.224 12.624 20.88 11.28 19.248 11.28C17.616 11.28 16.272 12.624 16.272 14.256C16.272 14.544 16.32 14.88 16.416 15.12H7.92C8.016 14.832 8.064 14.544 8.064 14.256C8.064 12.624 6.72 11.28 5.088 11.28C3.456 11.28 2.112 12.624 2.112 14.256C2.112 14.544 2.16 14.784 2.208 15.024C1.872 14.928 1.488 14.832 1.056 14.592C0.816 14.448 0.671999 14.208 0.623999 13.92C0.383999 12.72 0.576 11.52 1.2 10.416ZM11.52 10.176L15.792 10.32L16.128 10.224C15.312 9.696 14.4 9.264 13.344 8.832C13.296 8.832 13.248 8.784 13.2 8.784C12.672 8.688 12.096 8.688 11.52 8.688V10.176ZM6.432 9.984L10.56 10.128V8.736C9.216 8.784 7.776 9.024 6.144 9.408L6.432 9.984Z" fill="#FFD700"/>
<path d="M21.216 14.256C21.216 13.152 20.304 12.24 19.2 12.24C18.096 12.24 17.184 13.152 17.184 14.256C17.184 15.36 18.096 16.272 19.2 16.272C20.304 16.272 21.216 15.36 21.216 14.256Z" fill="#FFD700"/>
<path d="M2.976 14.256C2.976 15.36 3.888 16.272 4.992 16.272C6.096 16.272 7.008 15.36 7.008 14.256C7.008 13.152 6.096 12.24 4.992 12.24C3.888 12.24 2.976 13.152 2.976 14.256Z" fill="#FFD700"/>
</svg>
