<svg width="126" height="126" viewBox="0 0 126 126" fill="none" xmlns="http://www.w3.org/2000/svg">
<path d="M104.346 3.9364C103.362 3.9364 102.377 4.59232 102.377 5.90515V9.84264C102.377 12.4683 106.315 12.4683 106.315 9.84264V5.90515C106.315 4.59233 105.33 3.9364 104.346 3.9364ZM92.2604 10.3848L95.0443 13.1687C96.9009 15.0253 99.6848 12.2414 97.8282 10.3848L95.0443 7.60089C94.5801 7.13672 94.057 6.96052 93.5639 6.98948C92.0846 7.07633 90.8679 8.99236 92.2604 10.3848ZM113.647 7.60092L110.864 10.3848C109.007 12.2415 111.791 15.0254 113.647 13.1688L116.431 10.3848C117.824 8.99239 116.607 7.07636 115.128 6.98951C114.635 6.96049 114.112 7.13675 113.647 7.60092ZM61.5063 10.5347L49.69 24.3121C48.5869 25.5902 49.4974 27.5745 51.1858 27.569H55.1271C55.1271 38.0396 52.2946 46.3605 47.0445 52.0707C41.7944 57.7808 34.0568 61.0223 23.6463 61.0223C21.0207 61.0223 21.0207 64.9598 23.6463 64.9598C34.2242 64.9598 45.8312 64.5554 55.0964 59.5688C64.3616 54.5822 70.881 45.086 70.881 27.5575L74.8492 27.5693C76.5239 27.55 77.4086 25.5802 76.3143 24.3124L64.5018 10.535C64.1129 10.0746 63.5315 9.81916 62.9291 9.83899C62.3775 9.86109 61.8623 10.1128 61.5063 10.5347ZM63.002 14.8376L70.5886 23.6892L68.8736 23.716C67.803 23.7353 66.947 24.6063 66.9433 25.6771V27.5689C66.9433 43.8281 61.0704 51.8733 53.2236 56.0965C50.4867 57.5695 47.6692 58.5211 44.6949 59.2227C46.6429 57.8945 48.2851 56.5269 49.9359 54.7315C55.9992 48.1369 59.0645 38.7545 59.0645 27.5689V25.5925C59.0608 24.5105 58.1854 23.6353 57.1034 23.6314H55.4615L63.002 14.8376ZM88.5035 20.1824C87.8258 20.3615 87.2938 20.887 87.1077 21.5628C85.8037 26.4463 87.1981 31.6701 90.7683 35.2402C93.8401 38.3127 98.1299 39.7577 102.377 39.27V51.1901H92.5294C89.2914 51.1901 86.627 53.7968 86.627 57.0887V63.0064C86.627 63.6991 86.7437 64.3526 86.9615 64.9675H84.6506C81.4125 64.9675 78.7482 67.5742 78.7482 70.866V76.7838C78.7482 80.0653 81.4144 82.6798 84.6506 82.6824C85.4288 82.6823 86.1631 82.6824 86.9538 82.6824C86.7361 83.2981 86.627 83.9524 86.627 84.6473V90.565C86.627 91.259 86.7428 91.914 86.9615 92.5299H84.6544C84.065 92.5299 83.4937 92.6256 82.9586 92.7914L66.9702 81.0943C62.3245 77.6932 58.4543 76.0663 53.2082 75.338C48.6295 74.7023 43.051 74.7947 35.4395 74.8151V72.8232C35.4373 71.7292 34.5518 70.8465 33.463 70.8506H27.5645C27.5601 69.7584 26.6755 68.8777 25.588 68.8819H5.91589C4.82713 68.8777 3.94168 69.7604 3.93945 70.8545V112.237C3.94168 113.331 4.82713 114.213 5.91589 114.209H25.588C26.6755 114.213 27.5601 113.333 27.5645 112.24H33.463C34.5518 112.245 35.4372 111.362 35.4395 110.268V108.284H37.4121C38.3623 108.284 39.7869 108.915 41.6956 110.129C43.6043 111.344 45.7908 113.029 48.0056 114.751C50.2205 116.474 52.4637 118.239 54.6156 119.608C56.7674 120.977 58.9987 122.061 61.0255 122.061H108.287C112.616 122.061 116.166 118.591 116.166 114.186C116.166 111.574 114.931 109.311 113.013 107.884C113.759 106.899 114.189 105.686 114.189 104.346V98.4285C114.189 97.7336 114.065 97.0793 113.847 96.4636C114.576 96.4636 115.46 96.4636 116.162 96.4636C119.398 96.461 122.064 93.8465 122.064 90.565V84.6473C122.064 81.3554 119.4 78.7487 116.162 78.7487H113.843C114.062 78.1328 114.186 77.4778 114.186 76.7838V70.866C114.186 70.1725 114.076 69.5197 113.859 68.905C114.589 68.905 115.459 68.905 116.162 68.905C119.398 68.9024 122.065 66.2879 122.065 63.0064V57.0887C122.065 53.7968 119.4 51.1901 116.162 51.1901H106.315V47.1527C110.562 47.6404 114.851 46.1877 117.923 43.1152C121.493 39.5451 122.888 34.3213 121.584 29.4378C121.398 28.7621 120.866 28.2364 120.188 28.0574C117.746 27.4002 115.224 27.4099 112.863 28.0418C110.502 28.6738 108.316 29.9198 106.53 31.7063C106.407 31.8293 106.321 31.8986 106.203 32.0254C105.819 28.9459 104.422 26.0916 102.162 23.8313C100.376 22.0447 98.1898 20.7988 95.8286 20.1667C94.648 19.8507 93.4256 19.6856 92.1949 19.6862C90.9641 19.6868 89.7244 19.8538 88.5035 20.1824ZM99.3893 26.6193C101.472 28.7021 102.754 31.8095 102.262 35.3402C98.7197 35.7898 95.647 34.5361 93.5599 32.4486C91.477 30.3658 90.1824 27.2025 90.6606 23.7392C91.1182 23.6834 91.5904 23.6317 92.0257 23.6277C95.0728 23.6002 97.5656 24.7952 99.3893 26.6193ZM118.008 31.5911C118.386 35.5389 117.214 38.2407 115.132 40.3235C113.044 42.4111 109.972 43.6647 106.43 43.2151C105.938 39.6844 107.219 36.577 109.302 34.4942C111.126 32.6702 113.619 31.4749 116.666 31.5027C117.101 31.5066 117.55 31.5354 118.008 31.5911ZM92.5294 55.1276H94.502V59.0613C94.502 61.6869 98.4395 61.6869 98.4395 59.0613V55.1276H102.377V59.0613C102.377 61.6869 106.314 61.6869 106.314 59.0613V55.1276H110.252V59.0613C110.252 61.6869 114.189 61.6869 114.189 59.0613V55.1276H116.162C117.287 55.1276 118.123 56.0101 118.123 57.0887V63.0065C118.123 64.1312 117.227 64.9667 116.162 64.9675C108.289 64.9675 100.758 64.9675 92.5294 64.9675C91.4643 64.9667 90.5683 64.1312 90.5683 63.0065V57.0887C90.5683 56.0101 91.4046 55.1276 92.5294 55.1276ZM84.6505 68.905H86.627V72.8386C86.627 75.4643 90.5645 75.4643 90.5645 72.8386V68.905H94.502V72.8386C94.502 75.4643 98.4395 75.4643 98.4395 72.8386V68.905H102.377V72.8386C102.377 75.4643 106.314 75.4643 106.314 72.8386V68.905H108.283C109.408 68.905 110.244 69.7875 110.244 70.8661V76.7838C110.244 77.9086 109.348 78.744 108.283 78.7449C100.367 78.7448 91.7863 78.7452 84.6505 78.7449C83.5854 78.744 82.6895 77.9086 82.6895 76.7838V70.8661C82.6895 69.7875 83.5258 68.905 84.6505 68.905ZM7.87696 72.8425H23.627V110.249H7.87696V72.8425ZM27.5645 74.8112H31.502V108.28H27.5645V74.8112ZM35.4395 78.7526C43.0671 78.7362 48.5677 78.6637 52.6699 79.2332C56.9696 79.8301 60.3692 81.1448 64.6439 84.2743L85.0197 99.186C86.8095 100.496 87.1183 102.997 85.8772 104.696C84.636 106.396 82.1853 106.848 80.3977 105.554L68.9774 96.875C66.8652 95.0394 64.2648 98.4493 66.5934 100.001L78.0445 108.714C79.5033 109.728 80.7887 110.306 83.4662 110.245H84.6544H108.287C110.503 110.245 112.228 112.078 112.228 114.186C112.228 116.294 110.503 118.124 108.287 118.124H61.0255C60.1146 118.124 58.6468 117.493 56.7381 116.278C54.8294 115.063 52.6468 113.363 50.432 111.641C48.2171 109.918 45.9701 108.173 43.8182 106.803C41.6663 105.434 39.502 104.346 37.4121 104.346H35.4395V78.7526ZM92.5294 82.6862H94.502V86.6199C94.502 89.2455 98.4395 89.2455 98.4395 86.6199V82.6862H102.377V86.6199C102.377 89.2455 106.314 89.2455 106.314 86.6199V82.6862H110.252V86.6199C110.252 89.2455 114.189 89.2455 114.189 86.6199V82.6862H116.162C117.287 82.6862 118.123 83.5687 118.123 84.6473V90.565C118.123 91.6898 117.227 92.5253 116.162 92.5261C108.246 92.526 99.6651 92.5264 92.5294 92.5261C91.4643 92.5253 90.5683 91.6898 90.5683 90.565V84.6473C90.5683 83.5687 91.4046 82.6862 92.5294 82.6862ZM87.9113 96.4674H94.502V100.405C94.502 103.031 98.4395 103.031 98.4395 100.405V96.4674H102.377V100.405C102.377 103.031 106.314 103.031 106.314 100.405V96.4674H108.287C109.412 96.4674 110.248 97.3499 110.248 98.4285V104.346C110.248 105.471 109.352 106.306 108.287 106.307C102.004 106.307 95.5634 106.307 89.5301 106.307C91.4242 103.059 90.7313 98.9383 87.9113 96.4674ZM15.752 102.374C14.6647 102.374 13.7832 103.255 13.7832 104.342C13.7832 105.43 14.6647 106.311 15.752 106.311C16.8393 106.311 17.7207 105.43 17.7207 104.342C17.7207 103.255 16.8393 102.374 15.752 102.374Z" fill="#FFD700"/>
</svg>
