<svg width="178" height="178" viewBox="0 0 178 178" fill="none" xmlns="http://www.w3.org/2000/svg">
<path d="M137.046 10.7359C134.424 8.11306 130.49 12.0463 133.113 14.6692L137.046 18.6024C139.669 21.2253 143.603 17.292 140.98 14.6692L137.046 10.7359Z" fill="#FFCA28"/>
<path d="M163.332 10.7359C165.954 8.11306 169.888 12.0463 167.265 14.6692L163.332 18.6024C160.709 21.2253 156.775 17.292 159.398 14.6692L163.332 10.7359Z" fill="#FFCA28"/>
<path d="M145.148 38.4396C140.801 34.0914 134.465 32.3926 128.522 33.9921C126.935 39.9381 128.633 46.2684 132.978 50.6129C137.325 54.9611 143.661 56.6599 149.604 55.0603C151.191 49.1147 149.493 42.7842 145.148 38.4396Z" fill="#A0BF05"/>
<path d="M155.228 49.5368C159.575 45.1886 165.911 43.4898 171.854 45.0893C173.441 51.0353 171.743 57.3656 167.398 61.7101C163.051 66.0583 156.715 67.7571 150.772 66.1575C149.185 60.2118 150.883 53.8813 155.228 49.5368Z" fill="#809804"/>
<path d="M147.402 80.6548V44.4987C147.402 40.7894 152.966 40.7894 152.966 44.4987V80.6548H147.402Z" fill="#A0BF05"/>
<path d="M152.971 8.34253C152.971 4.6333 147.408 4.6333 147.408 8.34253V13.905C147.408 17.6143 152.971 17.6143 152.971 13.905V8.34253Z" fill="#FFCA28"/>
<path d="M36.1582 105.686V158.53H44.502C46.0428 158.53 47.2832 157.289 47.2832 155.748V108.467C47.2832 106.926 46.0428 105.686 44.502 105.686H36.1582Z" fill="#E4EFF8"/>
<path d="M158.533 155.748C161.615 155.745 164.096 153.267 164.096 150.185V141.842C164.096 138.76 161.615 136.279 158.533 136.279H125.158C122.077 136.279 119.596 138.76 119.596 141.842V150.185C119.596 153.267 122.077 155.745 125.158 155.748C139.68 155.748 147.261 155.748 158.533 155.748Z" fill="#FFCA28"/>
<path d="M158.968 136.323C158.968 152.967 130.721 152.967 120.785 153.591C121.802 154.894 123.37 155.746 125.158 155.748C139.68 155.748 147.261 155.748 158.533 155.748C161.615 155.745 164.096 153.267 164.096 150.185V141.842C164.096 138.909 161.841 136.546 158.968 136.323Z" fill="#ECB200"/>
<path d="M139.059 136.246V141.842C139.059 145.551 144.622 145.551 144.622 141.842V136.246H139.059Z" fill="#ECB200"/>
<path d="M127.939 136.246V141.842C127.939 145.551 133.503 145.551 133.503 141.842V136.246H127.939Z" fill="#ECB200"/>
<path d="M150.189 136.246V141.842C150.189 145.551 155.753 145.551 155.753 141.842V136.246H150.189Z" fill="#ECB200"/>
<path d="M147.402 75.0924V80.6549H152.965V75.0924H147.402Z" fill="#809804"/>
<path d="M105.689 36.1549L89.0017 16.6862L72.3142 36.1549H80.6579V38.9362C80.6579 69.5298 63.9902 88.9985 33.3965 88.9985C63.1097 88.9985 97.3454 86.2173 97.3454 38.9362V36.284L105.689 36.1549Z" fill="#FF2929"/>
<path d="M72.3142 36.155H80.658V38.9362C80.658 69.5299 63.9922 88.9986 33.3984 88.9986C38.7501 88.9986 44.2437 88.8955 49.6623 88.4716C75.172 85.3275 89.0017 66.7598 89.0017 38.9361V16.6862C82.9712 22.7405 77.7813 29.5943 72.3142 36.155Z" fill="#FF5151"/>
<path d="M8.34571 102.905H33.3769C34.9177 102.905 36.1581 104.145 36.1581 105.686V158.53C36.1581 160.07 34.9177 161.311 33.3769 161.311H8.34571C6.80489 161.311 5.56445 160.07 5.56445 158.53V105.686C5.56445 104.145 6.80489 102.905 8.34571 102.905Z" fill="#4EA3DA"/>
<path d="M36.1582 105.686V158.53H41.7207V105.686H36.1582Z" fill="#C4DCF0"/>
<path d="M166.877 136.28C169.959 136.278 172.439 133.799 172.439 130.718V122.374C172.439 119.292 169.959 116.811 166.877 116.811H133.502C130.42 116.811 127.939 119.292 127.939 122.374V130.718C127.939 133.799 130.42 136.278 133.502 136.28C148.024 136.281 155.605 136.28 166.877 136.28Z" fill="#FFCA28"/>
<path d="M167.311 116.855C167.311 133.499 139.064 133.499 129.129 134.123C130.145 135.427 131.713 136.279 133.502 136.28C148.024 136.281 155.605 136.28 166.877 136.28C169.958 136.278 172.439 133.799 172.439 130.718V122.374C172.439 119.441 170.185 117.079 167.311 116.855Z" fill="#ECB200"/>
<path d="M47.2832 111.249V152.967H52.8457C61.1895 152.967 77.877 172.436 86.2207 172.436H152.971C157.593 172.436 161.315 168.715 161.315 164.092C161.315 159.47 157.593 155.748 152.971 155.748H118.428L118.135 155.645C120.234 155.312 122.208 154.181 123.567 152.321C126.293 148.588 125.482 143.389 121.752 140.658L92.9729 119.592C80.371 110.367 72.3145 111.249 47.2832 111.249Z" fill="#FFD1B5"/>
<path d="M47.2832 111.249V152.967H52.8457V111.249C50.9047 111.254 49.4687 111.249 47.2832 111.249Z" fill="#FFB98D"/>
<path d="M79.5254 169.878C82.0515 171.417 84.3541 172.436 86.2214 172.436H152.971C157.594 172.436 161.315 168.715 161.315 164.092C161.315 161.416 160.059 159.061 158.107 157.547C161.315 172.436 86.2215 169.878 79.5254 169.878Z" fill="#FFB98D"/>
<path d="M166.877 97.3424C169.959 97.3399 172.439 94.8615 172.439 91.7799V83.4361C172.439 80.3545 169.959 77.8737 166.877 77.8737H133.502C130.42 77.8737 127.939 80.3545 127.939 83.4361V91.7799C127.939 94.8615 130.42 97.3399 133.502 97.3424C148.024 97.343 155.605 97.3424 166.877 97.3424Z" fill="#FFCA28"/>
<path d="M167.311 77.917C167.311 94.561 139.064 94.561 129.129 95.1857C130.145 96.4889 131.713 97.3408 133.502 97.3423C148.024 97.3429 155.605 97.3423 166.877 97.3423C169.958 97.3398 172.439 94.8614 172.439 91.7798V83.436C172.439 80.5033 170.185 78.1409 167.311 77.917Z" fill="#ECB200"/>
<path d="M91.5446 145.179L107.7 157.478C107.714 157.485 107.728 157.492 107.743 157.5C112.681 161.106 119.678 160.015 123.284 155.077C126.068 151.265 126.022 146.24 123.599 142.48C125.077 145.219 124.977 148.661 123.013 151.351C120.481 154.817 115.834 155.719 111.619 153.339L94.9125 140.763C94.4171 140.334 93.7861 140.093 93.1307 140.084C90.357 140.041 89.2366 143.64 91.5446 145.179Z" fill="#FFB98D"/>
<path d="M22.252 150.186C22.252 151.722 21.0067 152.967 19.4707 152.967C17.9347 152.967 16.6895 151.722 16.6895 150.186C16.6895 148.65 17.9347 147.405 19.4707 147.405C21.0067 147.405 22.252 148.65 22.252 150.186Z" fill="#E4EFF8"/>
<path d="M147.402 77.8408V83.4362C147.402 87.1454 152.966 87.1454 152.966 83.4362V77.8408H147.402Z" fill="#ECB200"/>
<path d="M136.283 77.8408V83.4362C136.283 87.1454 141.847 87.1454 141.847 83.4362V77.8408H136.283Z" fill="#ECB200"/>
<path d="M158.533 77.8408V83.4362C158.533 87.1454 164.097 87.1454 164.097 83.4362V77.8408H158.533Z" fill="#ECB200"/>
<path d="M158.533 116.811C161.615 116.809 164.096 114.33 164.096 111.248V102.905C164.096 99.8231 161.615 97.3423 158.533 97.3423H125.158C122.077 97.3423 119.596 99.8231 119.596 102.905V111.248C119.596 114.33 122.077 116.809 125.158 116.811C139.68 116.812 147.261 116.811 158.533 116.811Z" fill="#FFCA28"/>
<path d="M158.968 97.3857C158.968 114.03 130.721 114.03 120.785 114.654C121.802 115.958 123.37 116.81 125.158 116.811C139.68 116.812 147.261 116.811 158.533 116.811C161.615 116.809 164.096 114.33 164.096 111.249V102.905C164.096 99.972 161.841 97.6097 158.968 97.3857Z" fill="#ECB200"/>
<path d="M139.059 97.3094V102.905C139.059 106.614 144.622 106.614 144.622 102.905V97.3094H139.059Z" fill="#ECB200"/>
<path d="M127.939 97.3094V102.905C127.939 106.614 133.503 106.614 133.503 102.905V97.3094H127.939Z" fill="#ECB200"/>
<path d="M150.189 97.3094V102.905C150.189 106.614 155.753 106.614 155.753 102.905V97.3094H150.189Z" fill="#ECB200"/>
<path d="M147.402 116.777V122.373C147.402 126.082 152.966 126.082 152.966 122.373V116.777H147.402Z" fill="#ECB200"/>
<path d="M136.281 116.777V122.373C136.281 126.082 141.845 126.082 141.845 122.373V116.777H136.281Z" fill="#ECB200"/>
<path d="M158.531 116.777V122.373C158.531 126.082 164.095 126.082 164.095 122.373V116.777H158.531Z" fill="#ECB200"/>
<path d="M31.1606 102.905C31.1606 130.717 33.377 155.748 8.3457 161.311H33.377C34.9178 161.311 36.1582 160.07 36.1582 158.53V105.686C36.1582 104.145 34.9178 102.905 33.377 102.905H31.1606Z" fill="#4EA3DA"/>
</svg>
