<svg width="16" height="19" viewBox="0 0 16 19" fill="none" xmlns="http://www.w3.org/2000/svg">
<path d="M8 0C12.4107 0 16 3.21892 16 7.17646C16 12.7997 8.752 18.6057 8.44356 18.8496C8.31644 18.9501 8.15822 19 8 19C7.84178 19 7.68356 18.9501 7.55645 18.8504C7.248 18.6058 0 12.7997 0 7.17646C0 3.21892 3.58933 0 8 0ZM8 11.0833C10.4507 11.0833 12.4444 9.30762 12.4444 7.125C12.4444 4.94238 10.4507 3.16667 8 3.16667C5.54933 3.16667 3.55556 4.94238 3.55556 7.125C3.55556 9.30762 5.54933 11.0833 8 11.0833Z" fill="#FFD700"/>
</svg>
