<svg width="142" height="142" viewBox="0 0 142 142" fill="none" xmlns="http://www.w3.org/2000/svg">
<g clip-path="url(#clip0_333_7612)">
<path d="M124.25 33.2729H28.8438V84.3181H124.25V33.2729Z" fill="#FFD700"/>
<path d="M76.4219 75.4569C85.6122 75.4569 93.0625 68.0066 93.0625 58.8163C93.0625 49.6259 85.6122 42.1757 76.4219 42.1757C67.2315 42.1757 59.7812 49.6259 59.7812 58.8163C59.7812 68.0066 67.2315 75.4569 76.4219 75.4569Z" fill="#FFD700"/>
<path d="M124.25 45.5617V33.2726H111.961C111.961 40.0598 117.463 45.5617 124.25 45.5617Z" fill="#FFD700"/>
<path d="M124.25 72.0272V84.3163H111.961C111.961 77.5292 117.463 72.0272 124.25 72.0272Z" fill="#FFD700"/>
<path d="M28.8438 72.0272V84.3163H41.1329C41.1329 77.5292 35.6309 72.0272 28.8438 72.0272Z" fill="#FFD700"/>
<path d="M104.721 96.6784C96.8712 93.9937 88.2924 94.4075 80.7372 97.8352L62.1025 106.29C58.5808 107.888 57.0571 112.066 58.7236 115.556C59.463 117.104 60.7139 118.257 62.1863 118.903L61.7098 119.025H56.0647C54.8084 119.025 53.5709 118.723 52.4562 118.143L29.09 105.996C25.1955 103.971 20.3975 105.552 18.4694 109.495C16.6608 113.193 18.0323 117.659 21.6042 119.705L49.7022 135.8C53.572 138.016 58.0874 138.832 62.488 138.108L121.477 128.41V102.409L104.721 96.6784Z" fill="#FFCDAC"/>
<path d="M139.227 92.9102H121.477V139.227H139.227V92.9102Z" fill="#4EA3DA"/>
<path d="M20.5234 8.32031H69.5939C72.7018 8.32031 75.7614 9.08939 78.5002 10.5588L120.851 33.2818H68.1034C66.3462 33.2818 64.9217 34.7062 64.9217 36.4635C64.9217 37.5856 65.513 38.6251 66.4776 39.1984L77.7225 45.8838C80.4852 47.5262 81.4817 51.0423 79.9909 53.8901C78.536 56.6696 75.1979 57.8761 72.3024 56.6685L46.2349 45.7994C40.2473 43.3028 33.8246 42.0176 27.3372 42.0176H20.5234V8.32031Z" fill="#FFCDAC"/>
<path d="M20.5234 2.77344H2.77344V49.0898H20.5234V2.77344Z" fill="#4EA3DA"/>
<path d="M23.2969 49.0898V44.791H26.0703V84.3167C26.0703 85.8482 27.3123 87.0901 28.8438 87.0901H124.25C125.781 87.0901 127.023 85.8482 127.023 84.3167V33.2727C127.023 31.7409 125.781 30.4992 124.25 30.4992H121.531L82.6839 9.656C77.6734 6.96798 72.0195 5.54688 66.3337 5.54688H23.2969V2.77344C23.2969 1.24167 22.0549 0 20.5234 0H2.77344C1.24195 0 0 1.24167 0 2.77344V49.0898C0 50.6216 1.24195 51.8633 2.77344 51.8633H20.5234C22.0549 51.8633 23.2969 50.6216 23.2969 49.0898ZM74.6618 59.9198C75.0631 59.9198 75.4616 59.8918 75.8555 59.8377C76.0388 59.8757 76.2282 59.8963 76.4229 59.8963C77.8243 59.8963 79.008 60.8534 79.008 61.986C79.008 63.1187 77.824 64.0758 76.4229 64.0758C75.5842 64.0758 74.791 63.7372 74.3018 63.1703C73.3011 62.011 71.5494 61.882 70.3901 62.8833C69.2308 63.8842 69.1021 65.6356 70.1033 66.7949C71.0513 67.8929 72.2808 68.7028 73.6553 69.1684C73.7135 70.6486 74.9288 71.8317 76.4232 71.8317C77.9183 71.8317 79.1339 70.6478 79.1911 69.1665C82.3165 68.1006 84.5552 65.2845 84.5552 61.9858C84.5552 59.703 83.4816 57.6523 81.7853 56.2517C82.0275 55.9139 82.2493 55.555 82.4479 55.1756C84.0096 52.1922 83.6993 48.7049 81.9063 46.0893C86.8219 48.2237 90.2696 53.123 90.2696 58.8146C90.2696 66.461 84.0487 72.6818 76.4024 72.6818C68.756 72.6818 62.5352 66.461 62.5352 58.8146C62.5352 57.7699 62.6533 56.7443 62.8794 55.7439L71.2349 59.2279C72.3579 59.6966 73.5199 59.9198 74.6618 59.9198ZM76.4024 78.2292C87.1073 78.2292 95.8164 69.5201 95.8164 58.8152C95.8164 48.1103 87.1073 39.4011 76.4024 39.4011C75.1965 39.4011 73.9934 39.5195 72.8152 39.7398L67.8951 36.8146C67.772 36.7414 67.6952 36.6066 67.6952 36.4635C67.6952 36.2383 67.8782 36.0552 68.1037 36.0552H109.45C110.591 42.136 115.395 46.9379 121.477 48.075V69.5143C115.392 70.6519 110.586 75.458 109.448 81.5432H43.6461C42.5085 75.458 37.7024 70.6519 31.6172 69.5143V45.065C36.5955 45.5776 41.4543 46.8115 46.1187 48.7562L57.7061 53.5875C57.2329 55.2799 56.9883 57.0288 56.9883 58.8152C56.9883 69.5204 65.6975 78.2292 76.4024 78.2292ZM121.477 36.0461V42.3751C118.459 41.4537 116.074 39.0714 115.15 36.0552H120.851C120.923 36.0552 120.995 36.0516 121.066 36.0461H121.477ZM31.6172 75.2142C34.6375 76.1364 37.024 78.523 37.9462 81.5432H31.6172V75.2142ZM115.148 81.5432C116.07 78.523 118.456 76.1364 121.477 75.2142V81.5432H115.148ZM66.3337 11.0938C71.1076 11.0938 75.8546 12.2869 80.0617 14.5439L109.799 30.4992H74.0893C74.0286 30.4992 73.9692 30.5045 73.9096 30.5084H68.1034C64.8197 30.5084 62.148 33.1797 62.148 36.4635C62.148 38.553 63.2635 40.5144 65.0599 41.5824L76.305 48.2678C77.8013 49.1572 78.3407 51.062 77.5334 52.6041C76.7399 54.1206 74.9499 54.7679 73.3696 54.1089L48.2534 43.6367C41.2629 40.7221 33.8786 39.2444 26.3055 39.2444H23.2969V11.0938H66.3337ZM17.75 46.3164H5.54688V5.54688H17.75V46.3164Z" fill="#404042"/>
<path d="M11.6672 36.517H11.6309C10.0994 36.517 8.85742 37.7586 8.85742 39.2904C8.85742 40.8222 10.0994 42.0638 11.6309 42.0638H11.6672C13.1987 42.0638 14.4406 40.8222 14.4406 39.2904C14.4406 37.7586 13.199 36.517 11.6672 36.517Z" fill="#404042"/>
<path d="M139.227 90.1367H121.477C119.946 90.1367 118.704 91.3787 118.704 92.9102V98.5294L105.619 94.0545C97.0662 91.1293 87.8229 91.575 79.5911 95.3097L60.9566 103.764C58.5695 104.847 56.7599 106.8 55.8618 109.263C55.0265 111.554 55.0797 114.014 55.9999 116.25C55.2145 116.239 54.4327 116.045 53.7354 115.682L30.3695 103.535C27.8174 102.208 24.9069 101.973 22.1748 102.873C19.4424 103.773 17.2417 105.692 15.9779 108.276C13.5353 113.271 15.401 119.348 20.2254 122.111L48.3236 138.206C51.6895 140.134 55.5088 141.136 59.3586 141.136C60.5528 141.136 61.7507 141.039 62.9377 140.844L118.704 131.677V139.227C118.704 140.758 119.946 142 121.477 142H139.227C140.759 142 142.001 140.758 142.001 139.227V92.9102C142.001 91.3787 140.759 90.1367 139.227 90.1367ZM62.038 135.371C58.2778 135.989 54.3869 135.287 51.081 133.393L22.9827 117.299C20.6863 115.983 19.7983 113.091 20.9609 110.714C21.5624 109.483 22.6097 108.57 23.9104 108.142C25.2106 107.713 26.5957 107.825 27.8107 108.457L51.1772 120.605C52.6807 121.386 54.3708 121.799 56.0648 121.799H61.7099C61.8031 121.799 61.8952 121.794 61.9861 121.786C62.9399 122.094 63.9422 122.261 64.9609 122.261C65.991 122.261 67.0357 122.096 68.0588 121.749L86.6811 115.448C88.1319 114.957 88.9101 113.383 88.4195 111.932C87.9283 110.482 86.3547 109.703 84.9033 110.194L66.2811 116.495C64.3 117.165 62.1276 116.248 61.2265 114.361C60.7442 113.351 60.6895 112.216 61.0731 111.164C61.4567 110.112 62.2291 109.279 63.2486 108.816L81.883 100.362C88.8222 97.2134 96.6139 96.8373 103.823 99.3035L118.704 104.392V126.056L62.038 135.371ZM136.454 136.453H124.251V95.6836H136.454V136.453Z" fill="#404042"/>
<path d="M130.334 105.483H130.37C131.902 105.483 133.144 104.241 133.144 102.71C133.144 101.178 131.902 99.9362 130.37 99.9362H130.334C128.802 99.9362 127.561 101.178 127.561 102.71C127.561 104.241 128.802 105.483 130.334 105.483Z" fill="#404042"/>
<path d="M50.6549 56.0544H44.793C43.2615 56.0544 42.0195 57.2961 42.0195 58.8279C42.0195 60.3597 43.2615 61.6013 44.793 61.6013H50.6549C52.1864 61.6013 53.4283 60.3597 53.4283 58.8279C53.4283 57.2961 52.1864 56.0544 50.6549 56.0544Z" fill="#404042"/>
<path d="M102.16 61.6013H108.022C109.554 61.6013 110.796 60.3597 110.796 58.8279C110.796 57.2961 109.554 56.0544 108.022 56.0544H102.16C100.629 56.0544 99.3867 57.2961 99.3867 58.8279C99.3867 60.3597 100.628 61.6013 102.16 61.6013Z" fill="#404042"/>
<path d="M42.5898 22.1875H63.1524C64.6839 22.1875 65.9258 20.9458 65.9258 19.4141C65.9258 17.8823 64.6839 16.6406 63.1524 16.6406H42.5898C41.0584 16.6406 39.8164 17.8823 39.8164 19.4141C39.8164 20.9458 41.0584 22.1875 42.5898 22.1875Z" fill="#404042"/>
<path d="M32.8184 22.1875C33.5478 22.1875 34.2633 21.8907 34.7789 21.3749C35.2975 20.859 35.5918 20.1435 35.5918 19.4141C35.5918 18.6846 35.2975 17.9691 34.7789 17.4532C34.2633 16.9374 33.5503 16.6406 32.8184 16.6406C32.0889 16.6406 31.3734 16.9374 30.8575 17.4532C30.3417 17.9691 30.0449 18.6846 30.0449 19.4141C30.0449 20.1435 30.3414 20.859 30.8575 21.3749C31.3737 21.8907 32.0889 22.1875 32.8184 22.1875Z" fill="#404042"/>
</g>
<defs>
<clipPath id="clip0_333_7612">
<rect width="142" height="142" fill="white"/>
</clipPath>
</defs>
</svg>
