<svg width="13" height="15" viewBox="0 0 13 15" fill="none" xmlns="http://www.w3.org/2000/svg">
<path d="M0.0285959 11.0883C-0.0084343 11.2385 -0.00959015 11.3954 0.0252218 11.5462C0.0600338 11.697 0.129836 11.8374 0.228987 11.9562C0.962185 12.8357 1.87975 13.5433 2.91672 14.0289C3.9537 14.5145 5.08474 14.7662 6.22977 14.7662C7.3748 14.7662 8.50584 14.5145 9.54281 14.0289C10.5798 13.5433 11.4974 12.8357 12.2306 11.9562C12.3297 11.8374 12.3995 11.697 12.4343 11.5462C12.4691 11.3954 12.468 11.2385 12.4309 11.0883C12.0906 9.70744 11.2994 8.4796 10.1825 7.59922C10.0159 7.46861 9.81107 7.39624 9.5994 7.3932C9.38773 7.39017 9.1809 7.45664 9.01063 7.58242C8.26844 8.13437 7.29539 8.46875 6.23133 8.46875C5.16727 8.46875 4.19461 8.13437 3.45203 7.58242C3.28176 7.45664 3.07493 7.39017 2.86326 7.3932C2.65159 7.39624 2.44676 7.46861 2.28016 7.59922C1.16211 8.47912 0.369721 9.70701 0.0285959 11.0883Z" fill="#404042"/>
<path d="M6.22977 7.17891C4.24737 7.17891 2.64032 5.57185 2.64032 3.58945C2.64032 1.60705 4.24737 0 6.22977 0C8.21217 0 9.81922 1.60705 9.81922 3.58945C9.81922 5.57185 8.21217 7.17891 6.22977 7.17891Z" fill="#404042"/>
</svg>
