<svg width="18" height="17" viewBox="0 0 18 17" fill="none" xmlns="http://www.w3.org/2000/svg">
<path d="M0.760542 1.01933e-07C0.340506 1.01933e-07 0 0.33092 0 0.73913C0 1.14734 0.340506 1.47826 0.760542 1.47826H2.11377C2.2245 1.47826 2.33243 1.51212 2.42226 1.57505C2.51209 1.63797 2.57926 1.72677 2.61427 1.82887L5.12177 9.14096C5.23313 9.46562 5.24728 9.81517 5.16188 10.1472L4.9554 10.9513C4.65245 12.129 5.59575 13.3043 6.84488 13.3043H15.9714C16.3914 13.3043 16.7319 12.9734 16.7319 12.5652C16.7319 12.157 16.3914 11.8261 15.9714 11.8261H6.84488C6.54873 11.8261 6.35861 11.5899 6.43044 11.3107L6.58615 10.7063C6.61253 10.6039 6.67337 10.513 6.75901 10.4481C6.84464 10.3831 6.95015 10.3478 7.05878 10.3478H15.2108C15.5383 10.348 15.8291 10.1445 15.9328 9.84256L17.9604 3.92952C18.1246 3.45072 17.7578 2.95629 17.2385 2.95652H4.98511C4.87438 2.95652 4.76645 2.92266 4.67662 2.85974C4.58679 2.79681 4.51961 2.70802 4.48459 2.60592L3.76409 0.505265C3.66045 0.203375 3.36963 -0.000166284 3.04217 1.01933e-07H0.760542ZM6.08433 14.0435C5.24426 14.0435 4.56325 14.7053 4.56325 15.5217C4.56325 16.3382 5.24426 17 6.08433 17C6.92441 17 7.60542 16.3382 7.60542 15.5217C7.60542 14.7053 6.92441 14.0435 6.08433 14.0435ZM15.2108 14.0435C14.3708 14.0435 13.6898 14.7053 13.6898 15.5217C13.6898 16.3382 14.3708 17 15.2108 17C16.0509 17 16.7319 16.3382 16.7319 15.5217C16.7319 14.7053 16.0509 14.0435 15.2108 14.0435Z" fill="#404042"/>
</svg>
