<svg width="180" height="180" viewBox="0 0 180 180" fill="none" xmlns="http://www.w3.org/2000/svg">
<g clip-path="url(#clip0_333_7485)">
<path d="M58.6697 32.6601L55.7436 29.6219C54.7006 30.627 53.6775 31.6847 52.707 32.7656L55.8457 35.583C56.7486 34.5796 57.6976 33.596 58.6697 32.6601Z" fill="#404042"/>
<path d="M55.9297 115.68C56.9809 116.683 58.0815 117.658 59.2002 118.581L61.8808 115.325C60.8412 114.469 59.8197 113.562 58.841 112.63L55.9297 115.68Z" fill="#404042"/>
<path d="M49.5332 108.512C50.4064 109.666 51.3357 110.804 52.2962 111.897L55.4629 109.112C54.5699 108.096 53.7066 107.038 52.896 105.967L49.5332 108.512Z" fill="#404042"/>
<path d="M44.5713 90.2488L40.5742 91.5965C41.0372 92.9706 41.5578 94.3431 42.1197 95.6793L46.0064 94.0432C45.4841 92.8009 45.0013 91.524 44.5713 90.2488Z" fill="#404042"/>
<path d="M48.0974 98.444L44.3672 100.415C45.0411 101.69 45.7759 102.962 46.5536 104.199L50.1256 101.957C49.4039 100.808 48.7218 99.6253 48.0974 98.444Z" fill="#404042"/>
<path d="M80.4687 15.3158C79.0732 15.7195 77.676 16.1791 76.3184 16.685L77.7847 20.6392C79.0468 20.1713 80.3435 19.7429 81.6418 19.3673L80.4687 15.3158Z" fill="#404042"/>
<path d="M71.4871 18.7263C70.1789 19.3475 68.8757 20.0279 67.6152 20.7463L69.7027 24.4122C70.8742 23.7433 72.0835 23.1139 73.2995 22.5356L71.4871 18.7263Z" fill="#404042"/>
<path d="M63.3867 121.733C64.5796 122.552 65.8235 123.339 67.0806 124.072L69.2061 120.43C68.0363 119.747 66.8829 119.016 65.7741 118.255L63.3867 121.733Z" fill="#404042"/>
<path d="M63.1776 23.5389C61.9863 24.3644 60.8083 25.2442 59.6797 26.1553L62.3274 29.439C63.3786 28.5921 64.4726 27.7733 65.5781 27.0071L63.1776 23.5389Z" fill="#404042"/>
<path d="M71.7266 126.514C73.0381 127.132 74.3924 127.709 75.7517 128.229L77.2609 124.29C75.9988 123.807 74.74 123.272 73.5208 122.698L71.7266 126.514Z" fill="#404042"/>
<path d="M150.866 59.4337L154.965 58.4369C154.622 57.0282 154.222 55.6145 153.775 54.2305L149.762 55.5272C150.177 56.8123 150.549 58.1271 150.866 59.4337Z" fill="#404042"/>
<path d="M143.925 43.0598L147.494 40.8108C146.721 39.585 145.891 38.3707 145.029 37.2026L141.637 39.7086C142.436 40.7944 143.207 41.9213 143.925 43.0598Z" fill="#404042"/>
<path d="M148.06 50.965L151.944 49.319C151.377 47.9811 150.754 46.6499 150.093 45.3647L146.342 47.2908C146.955 48.487 147.533 49.7227 148.06 50.965Z" fill="#404042"/>
<path d="M152.268 68.2484L156.473 67.9238C156.361 66.4788 156.195 65.019 155.979 63.584L151.809 64.2134C152.01 65.5479 152.164 66.9056 152.268 68.2484Z" fill="#404042"/>
<path d="M41.6886 72.6886L37.4707 72.7018C37.4756 74.1599 37.5317 75.6279 37.6388 77.0663L41.8451 76.7516C41.7462 75.4121 41.6935 74.0462 41.6886 72.6886Z" fill="#404042"/>
<path d="M42.3815 63.7883L38.2164 63.126C37.9874 64.5594 37.8111 66.0192 37.6875 67.4641L41.8905 67.82C42.0059 66.4772 42.169 65.1212 42.3815 63.7883Z" fill="#404042"/>
<path d="M52.7516 39.3477L49.3773 36.817C48.5057 37.9802 47.6671 39.1879 46.8828 40.4071L50.4318 42.6858C51.16 41.5522 51.941 40.4302 52.7516 39.3477Z" fill="#404042"/>
<path d="M42.4197 81.5874L38.2578 82.2728C38.4934 83.7095 38.785 85.1512 39.1228 86.5566L43.2237 85.568C42.9106 84.2631 42.6388 82.9236 42.4197 81.5874Z" fill="#404042"/>
<path d="M47.9826 46.8987L44.2442 44.943C43.5704 46.2314 42.936 47.5594 42.3594 48.889L46.2296 50.5663C46.7651 49.3306 47.3549 48.0965 47.9826 46.8987Z" fill="#404042"/>
<path d="M44.4921 55.1186L40.4885 53.7906C40.0321 55.1713 39.6202 56.5833 39.2676 57.9887L43.3586 59.0169C43.6848 57.7119 44.067 56.4005 44.4921 55.1186Z" fill="#404042"/>
<path d="M132.324 115.256L135.015 118.507C136.133 117.579 137.231 116.602 138.277 115.6L135.359 112.554C134.387 113.487 133.366 114.396 132.324 115.256Z" fill="#404042"/>
<path d="M138.721 29.958L135.771 32.9731C136.737 33.9156 137.676 34.9058 138.569 35.9174L141.731 33.1247C140.77 32.0373 139.757 30.9713 138.721 29.958Z" fill="#404042"/>
<path d="M125.012 120.374L127.145 124.012C128.394 123.278 129.635 122.489 130.829 121.667L128.437 118.194C127.327 118.958 126.175 119.692 125.012 120.374Z" fill="#404042"/>
<path d="M138.727 109.031L141.9 111.809C142.859 110.715 143.786 109.574 144.658 108.42L141.292 105.878C140.48 106.952 139.618 108.013 138.727 109.031Z" fill="#404042"/>
<path d="M131.337 23.8125L128.908 27.2626C130.009 28.037 131.098 28.8641 132.142 29.7225L134.817 26.4602C133.691 25.5375 132.521 24.6478 131.337 23.8125Z" fill="#404042"/>
<path d="M152.432 72.5635C152.432 73.9195 152.382 75.2853 152.285 76.6232L156.491 76.9296C156.595 75.4896 156.65 74.02 156.65 72.5635H152.432Z" fill="#404042"/>
<path d="M150.926 85.4444L155.028 86.4214C155.364 85.0078 155.653 83.5661 155.883 82.136L151.72 81.4622C151.506 82.7918 151.237 84.1329 150.926 85.4444Z" fill="#404042"/>
<path d="M148.158 93.9328L152.048 95.5639C152.61 94.2211 153.129 92.8421 153.589 91.4663L149.588 90.1301C149.162 91.407 148.682 92.6872 148.158 93.9328Z" fill="#404042"/>
<path d="M144.053 101.866L147.631 104.099C148.404 102.861 149.136 101.586 149.811 100.307L146.078 98.3402C145.453 99.5298 144.771 100.714 144.053 101.866Z" fill="#404042"/>
<path d="M99.5586 127.88L99.7464 132.093C101.198 132.029 102.663 131.91 104.101 131.74L103.608 127.552C102.271 127.709 100.908 127.819 99.5586 127.88Z" fill="#404042"/>
<path d="M80.7285 129.885C82.1224 130.282 83.5525 130.633 84.9744 130.925L85.8246 126.794C84.5048 126.522 83.1769 126.196 81.8818 125.829L80.7285 129.885Z" fill="#404042"/>
<path d="M123.059 18.9306L121.217 22.7234C122.431 23.3132 123.639 23.9574 124.802 24.633L126.921 20.9852C125.667 20.2553 124.367 19.5649 123.059 18.9306Z" fill="#404042"/>
<path d="M95.1094 13.0058L95.2461 17.2221C96.5955 17.1792 97.963 17.1842 99.3108 17.2369L99.4788 13.0223C98.0289 12.9646 96.5609 12.9597 95.1094 13.0058Z" fill="#404042"/>
<path d="M89.8848 13.4012C88.4398 13.5759 86.9866 13.8049 85.5664 14.0817L86.3754 18.2205C87.6951 17.9635 89.0445 17.7509 90.3873 17.5895L89.8848 13.4012Z" fill="#404042"/>
<path d="M90.1504 131.755C91.5871 131.922 93.0535 132.037 94.505 132.098L94.683 127.885C93.3336 127.827 91.971 127.72 90.6348 127.565L90.1504 131.755Z" fill="#404042"/>
<path d="M114.101 15.4459L112.896 19.4891C114.187 19.873 115.48 20.3113 116.742 20.7908L118.241 16.848C116.884 16.3323 115.49 15.8595 114.101 15.4459Z" fill="#404042"/>
<path d="M116.977 124.246L118.492 128.182C119.845 127.659 121.196 127.081 122.508 126.46L120.703 122.647C119.486 123.224 118.23 123.761 116.977 124.246Z" fill="#404042"/>
<path d="M108.416 126.77L109.276 130.899C110.701 130.602 112.128 130.249 113.52 129.851L112.357 125.796C111.064 126.165 109.739 126.494 108.416 126.77Z" fill="#404042"/>
<path d="M104.701 13.4606L104.166 17.6438C105.501 17.8152 106.848 18.0376 108.171 18.3078L109.012 14.174C107.588 13.884 106.138 13.6435 104.701 13.4606Z" fill="#404042"/>
<path d="M112.328 60.3876H28.1914L33.2594 46.2149C35.5875 39.7036 41.7561 35.3588 48.6711 35.3588H91.8482C98.7616 35.3588 104.932 39.7036 107.26 46.2149L112.328 60.3876Z" fill="#4EA3DA"/>
<path d="M104.864 60.3876H35.6562L39.8263 50.3125C41.7409 45.6844 46.8138 42.5952 52.503 42.5952H88.0171C93.7046 42.5952 98.7793 45.6844 100.694 50.3125L104.864 60.3876Z" fill="white"/>
<path d="M2.10938 98.3319H138.411V116.475H2.10938V98.3319Z" fill="#4EA3DA"/>
<path d="M2.10938 98.3319H138.411V105.568H2.10938V98.3319Z" fill="white"/>
<path d="M23.1158 60.3876H17.4382C14.2517 60.3876 11.6699 57.8058 11.6699 54.6193C11.6699 51.4345 14.2517 48.8527 17.4382 48.8527H23.1158C26.3023 48.8527 28.8841 51.4345 28.8841 54.6193C28.8841 57.8058 26.3023 60.3876 23.1158 60.3876Z" fill="#4EA3DA"/>
<path d="M17.4379 54.2799H23.1155C25.32 54.2799 27.2329 55.5173 28.2033 57.3329C28.6366 56.524 28.8821 55.6013 28.8821 54.6193C28.8821 51.4345 26.3003 48.8527 23.1155 48.8527H17.4362C14.2514 48.8527 11.668 51.4345 11.668 54.6193C11.668 55.6013 11.9151 56.524 12.3484 57.3329C13.3205 55.5173 15.2334 54.2799 17.4379 54.2799Z" fill="white"/>
<path d="M123.081 60.3876H117.403C114.217 60.3876 111.635 57.8058 111.635 54.6193C111.635 51.4345 114.217 48.8527 117.403 48.8527H123.081C126.267 48.8527 128.849 51.4345 128.849 54.6193C128.849 57.8058 126.267 60.3876 123.081 60.3876Z" fill="#4EA3DA"/>
<path d="M117.403 54.2799H123.081C125.285 54.2799 127.198 55.5173 128.168 57.3329C128.602 56.524 128.847 55.6013 128.847 54.6193C128.847 51.4345 126.265 48.8527 123.081 48.8527H117.401C114.217 48.8527 111.635 51.4345 111.635 54.6193C111.635 55.6013 111.88 56.524 112.314 57.3329C113.286 55.5173 115.199 54.2799 117.403 54.2799Z" fill="white"/>
<path d="M16.4688 116.475H37.2763V127.331H16.4688V116.475Z" fill="#4EA3DA"/>
<path d="M16.4688 116.475H37.2763V121.904H16.4688V116.475Z" fill="white"/>
<path d="M103.242 116.475H124.05V127.331H103.242V116.475Z" fill="#4EA3DA"/>
<path d="M103.242 116.475H124.05V121.904H103.242V116.475Z" fill="white"/>
<path d="M114.669 60.3876H25.8516C15.8984 60.3876 7.83008 68.456 7.83008 78.4075V98.3336H132.69V78.4075C132.69 68.456 124.622 60.3876 114.669 60.3876Z" fill="#4EA3DA"/>
<path d="M114.669 60.3876H25.8516C15.8984 60.3876 7.83008 68.456 7.83008 78.4075V84.7409C7.83008 74.7877 15.8984 66.7194 25.8516 66.7194H114.669C124.622 66.7194 132.69 74.7877 132.69 84.7409V78.4075C132.69 68.456 124.622 60.3876 114.669 60.3876Z" fill="white"/>
<path d="M36.9693 89.1449H20.9859C19.1225 89.1449 17.6133 87.634 17.6133 85.7706V80.4554C17.6133 78.592 19.1241 77.0828 20.9859 77.0828H33.6478C34.811 77.0828 35.8918 77.6808 36.508 78.6678L39.8296 83.9829C41.235 86.2303 39.6187 89.1449 36.9693 89.1449Z" fill="white"/>
<path d="M103.551 89.1449H119.534C121.398 89.1449 122.907 87.634 122.907 85.7706V80.4554C122.907 78.592 121.396 77.0828 119.534 77.0828H106.872C105.709 77.0828 104.628 77.6808 104.012 78.6678L100.691 83.9829C99.2851 86.2303 100.901 89.1449 103.551 89.1449Z" fill="white"/>
<path d="M140.519 96.223H134.799V78.4075C134.799 71.5666 131.367 65.5166 126.137 61.8771C128.968 60.6826 130.958 57.8783 130.958 54.6194C130.958 50.2763 127.426 46.7438 123.081 46.7438H117.403C114.713 46.7438 112.334 48.1014 110.913 50.1659L109.246 45.5048C106.625 38.1746 99.6339 33.2499 91.849 33.2499H48.6719C40.8869 33.2499 33.8945 38.1746 31.2748 45.5048L29.6074 50.1675C28.1856 48.1014 25.8081 46.7438 23.1175 46.7438H17.4382C13.0952 46.7438 9.5627 50.2763 9.5627 54.621C9.5627 57.88 11.553 60.6826 14.3819 61.8787C9.15244 65.5183 5.72048 71.5683 5.72048 78.4075V96.2247H0V118.586H14.3605V129.442H39.386V118.586H101.133V129.442H126.159V118.586H140.519V96.223ZM117.402 50.9617H123.081C125.099 50.9617 126.739 52.6027 126.739 54.6194C126.739 56.636 125.099 58.2771 123.081 58.2771H117.402C115.385 58.2771 113.744 56.636 113.744 54.6194C113.744 52.6027 115.385 50.9617 117.402 50.9617ZM35.2456 46.9251C37.2688 41.2672 42.6631 37.4678 48.6719 37.4678H91.849C97.8562 37.4678 103.252 41.2672 105.275 46.9251L109.335 58.2787H106.272L102.642 49.5052C100.41 44.1109 94.5329 40.4862 88.0167 40.4862H52.5026C45.9863 40.4862 40.1109 44.1109 37.8768 49.5052L34.2471 58.2787H31.1842L35.2456 46.9251ZM101.708 58.2787H38.811L41.7734 51.1182C43.3616 47.2826 47.6734 44.7041 52.5026 44.7041H88.0183C92.8474 44.7041 97.1576 47.2826 98.7459 51.1182L101.708 58.2787ZM17.4382 50.9617H23.1159C25.1342 50.9617 26.7736 52.6027 26.7736 54.6194C26.7736 56.636 25.1342 58.2771 23.1159 58.2771H17.4382C15.4199 58.2771 13.7789 56.636 13.7789 54.6194C13.7789 52.6027 15.4199 50.9617 17.4382 50.9617ZM9.93835 78.4075C9.93835 69.634 17.0774 62.4949 25.8509 62.4949H114.67C123.442 62.4949 130.581 69.6323 130.581 78.4075V96.223H9.93835V78.4075ZM35.1681 125.223H18.5784V118.584H35.1681V125.223ZM121.941 125.223H105.351V118.584H121.941V125.223ZM136.301 114.366H4.21787V100.441H136.301V114.366Z" fill="#404042"/>
<path d="M38.2949 77.5491C37.2866 75.9361 35.5484 74.9739 33.647 74.9739H20.9852C17.9618 74.9739 15.502 77.4337 15.502 80.4555V85.7706C15.502 88.794 17.9618 91.2539 20.9852 91.2539H36.9669C38.9902 91.2539 40.7844 90.1977 41.7648 88.4282C42.7434 86.6587 42.6891 84.5794 41.6181 82.8659L38.2949 77.5491ZM38.0741 86.3852C37.9654 86.5796 37.6408 87.036 36.9669 87.036H20.9852C20.2882 87.036 19.7198 86.4692 19.7198 85.7706V80.4555C19.7198 79.7585 20.2882 79.1917 20.9852 79.1917H33.647C34.0853 79.1917 34.4873 79.4142 34.718 79.7865L38.0412 85.1001C38.3971 85.6701 38.1829 86.1875 38.0741 86.3852Z" fill="#404042"/>
<path d="M119.535 74.9739H106.873C104.971 74.9739 103.232 75.9361 102.223 77.5507L98.9016 82.8659C97.8291 84.5794 97.7747 86.6587 98.755 88.4282C99.7353 90.1977 101.528 91.2539 103.551 91.2539H119.533C122.556 91.2539 125.016 88.794 125.016 85.7706V80.4555C125.018 77.4337 122.558 74.9739 119.535 74.9739ZM120.8 85.7706C120.8 86.4692 120.232 87.036 119.535 87.036H103.553C102.879 87.036 102.554 86.5796 102.446 86.3852C102.337 86.1891 102.123 85.6718 102.479 85.1017L105.8 79.7882C106.032 79.4142 106.434 79.1917 106.873 79.1917H119.535C120.232 79.1917 120.8 79.7585 120.8 80.4571V85.7706Z" fill="#404042"/>
<path d="M54.2012 75.8784H86.3163V80.0963H54.2012V75.8784Z" fill="#404042"/>
<path d="M54.2012 84.2466H86.3163V88.4644H54.2012V84.2466Z" fill="#404042"/>
<path d="M172.543 83.3552C172.543 74.0841 165.028 66.5694 155.757 66.5694C155.693 66.5694 155.632 66.5777 155.569 66.5777C155.679 65.8 155.757 65.0108 155.757 64.2018C155.757 54.9291 148.24 47.4144 138.969 47.4144C129.698 47.4144 122.182 54.9307 122.182 64.2018C112.911 64.2018 105.395 71.7165 105.395 80.9876C105.395 90.2587 112.911 97.775 122.182 97.775C122.607 97.775 123.024 97.7437 123.441 97.7124C125.223 102.051 128.772 105.464 133.193 107.087C133.171 107.433 133.14 107.776 133.14 108.129C133.14 117.4 140.657 124.916 149.928 124.916C159.199 124.916 166.715 117.4 166.715 108.129C166.715 104.431 165.504 101.024 163.481 98.2512C168.86 95.4552 172.543 89.8402 172.543 83.3552Z" fill="white"/>
<path d="M149.926 127.025C139.621 127.025 131.217 118.733 131.032 108.471C127.187 106.689 124.035 103.654 122.119 99.884C111.729 99.8494 103.285 91.3856 103.285 80.9876C103.285 71.2453 110.698 63.2001 120.178 62.1967C121.181 52.7163 129.227 45.3038 138.969 45.3038C149.388 45.3038 157.865 53.7807 157.865 64.2001C157.865 64.3237 157.864 64.4489 157.86 64.5758C167.293 65.6253 174.651 73.6459 174.651 83.3552C174.651 89.6556 171.549 95.442 166.425 98.9415C167.998 101.747 168.822 104.883 168.822 108.129C168.822 118.548 160.345 127.025 149.926 127.025ZM124.777 95.4964L125.393 96.91C126.95 100.701 130.057 103.688 133.919 105.107L135.394 105.649L135.278 107.479C135.264 107.695 135.247 107.909 135.247 108.129C135.247 116.223 141.833 122.807 149.926 122.807C158.019 122.807 164.604 116.222 164.604 108.129C164.604 105.015 163.625 102.029 161.773 99.4951L160.327 97.5114L162.505 96.3795C167.395 93.8389 170.432 88.8483 170.432 83.3552C170.432 75.2622 163.848 68.6767 155.755 68.6767C155.738 68.6816 155.667 68.6849 155.595 68.6866L153.133 68.7179L153.479 66.2827C153.593 65.4787 153.646 64.8164 153.646 64.2018C153.646 56.1071 147.06 49.5233 138.967 49.5233C130.874 49.5233 124.29 56.1071 124.29 64.2018V66.3107H122.182C114.087 66.3107 107.503 72.8946 107.503 80.9876C107.503 89.0806 114.087 95.6661 122.182 95.6661C122.542 95.6661 122.895 95.6381 123.249 95.6117L124.777 95.4964Z" fill="#404042"/>
<path d="M94.2511 69.1249C84.98 69.1249 77.4636 76.6412 77.4636 85.9123C77.4636 85.9749 77.4719 86.0359 77.4735 86.1001C76.6942 85.9881 75.905 85.9123 75.096 85.9123C65.8233 85.9123 58.3086 93.4287 58.3086 102.7C58.3086 111.971 65.825 119.486 75.096 119.486C75.096 128.757 82.6124 136.273 91.8835 136.273C101.155 136.273 108.669 128.757 108.669 119.486C108.669 119.06 108.636 118.644 108.607 118.227C112.946 116.444 116.359 112.895 117.982 108.476C118.328 108.498 118.672 108.529 119.023 108.529C128.296 108.529 135.81 101.013 135.81 91.7415C135.81 82.4705 128.294 74.9541 119.023 74.9541C115.326 74.9541 111.92 76.1634 109.145 78.1883C106.349 72.8073 100.734 69.1249 94.2511 69.1249Z" fill="white"/>
<path d="M91.883 138.382C82.1391 138.382 74.0955 130.971 73.0921 121.489C63.6118 120.486 56.1992 112.442 56.1992 102.7C56.1992 92.2786 64.6778 83.8033 75.0956 83.8033C75.2192 83.8033 75.3444 83.805 75.4696 83.8066C76.5191 74.3741 84.5413 67.0159 94.2506 67.0159C100.551 67.0159 106.337 70.1183 109.837 75.2424C112.643 73.6689 115.778 72.8451 119.024 72.8451C129.443 72.8451 137.919 81.322 137.919 91.7415C137.919 102.046 129.63 110.45 119.368 110.635C117.586 114.48 114.551 117.632 110.779 119.548C110.745 129.94 102.281 138.382 91.883 138.382ZM75.0956 88.0212C67.0026 88.0212 60.4171 94.6067 60.4171 102.7C60.4171 110.793 67.0026 117.377 75.0956 117.377H77.2045V119.485C77.2045 127.58 83.7884 134.164 91.883 134.164C99.9761 134.164 106.56 127.58 106.56 119.485C106.56 119.135 106.532 118.789 106.507 118.443L106.392 116.915L107.804 116.276C111.595 114.719 114.582 111.61 116.001 107.748L116.543 106.273L118.375 106.387C118.591 106.402 118.805 106.418 119.024 106.418C127.117 106.418 133.701 99.8329 133.701 91.7398C133.701 83.6468 127.117 77.0613 119.024 77.0613C115.91 77.0613 112.925 78.04 110.389 79.8919L108.407 81.3385L107.275 79.1604C104.734 74.2703 99.7438 71.2337 94.2506 71.2337C86.156 71.2337 79.5721 77.8176 79.5721 85.9106C79.5754 85.9238 79.582 85.9963 79.582 86.0721L79.615 88.5336L77.1749 88.1859C76.3758 88.0739 75.7151 88.0212 75.0956 88.0212Z" fill="#404042"/>
<path d="M77.8564 165.875C66.0464 154.065 68.3102 134.335 82.4878 125.506L90.4458 120.552C93.8151 118.454 96.6572 115.61 98.7563 112.241L103.711 104.285C112.538 90.1055 132.27 87.8417 144.08 99.6517C155.892 111.463 153.626 131.193 139.449 140.023L131.491 144.977C128.123 147.075 125.279 149.918 123.18 153.288L118.226 161.244C109.398 175.423 89.6664 177.687 77.8564 165.875Z" fill="#FFCC34"/>
<path d="M82.4865 136.955L90.4444 132.001C93.8138 129.903 96.6559 127.06 98.7549 123.69L103.709 115.734C112.537 101.555 132.269 99.2909 144.079 111.101C147.714 114.736 150.01 119.121 151.042 123.708C152.903 115.414 150.711 106.285 144.079 99.6517C132.269 87.8417 112.537 90.1055 103.709 104.285L98.7549 112.241C96.6559 115.61 93.8138 118.454 90.4444 120.553L82.4865 125.508C72.6717 131.619 68.5708 142.952 70.8907 153.27C72.3455 146.793 76.2701 140.825 82.4865 136.955Z" fill="white"/>
<path d="M96.1525 175.588C88.7514 175.588 81.6783 172.682 76.3647 167.368C70.2768 161.28 67.349 152.886 68.331 144.333C69.3113 135.78 74.0663 128.266 81.3735 123.717L89.3314 118.762C92.4091 116.846 95.0502 114.207 96.9664 111.127L101.921 103.169C106.471 95.8622 113.984 91.1088 122.537 90.1269C131.088 89.1465 139.486 92.0743 145.572 98.1606C151.659 104.248 154.588 112.645 153.606 121.196C152.624 129.748 147.871 137.262 140.564 141.812L132.606 146.767C129.528 148.683 126.889 151.322 124.971 154.402L120.016 162.358C115.467 169.667 107.951 174.42 99.3999 175.4C98.3141 175.525 97.2283 175.588 96.1525 175.588ZM79.3469 164.386C84.5187 169.556 91.6562 172.049 98.9188 171.21C106.185 170.377 112.569 166.338 116.436 160.13L121.39 152.172C123.646 148.549 126.753 145.442 130.377 143.186L138.333 138.232C144.543 134.365 148.581 127.981 149.415 120.715C150.248 113.449 147.76 106.315 142.589 101.141C137.417 95.9693 130.286 93.4814 123.017 94.3167C115.752 95.1504 109.366 99.1887 105.501 105.399L100.547 113.355C98.2894 116.98 95.182 120.087 91.5589 122.342L83.6027 127.297C77.3945 131.162 73.3546 137.547 72.5209 144.814C71.6872 152.08 74.1751 159.214 79.3469 164.386Z" fill="#404042"/>
<path d="M177.891 106.341C177.891 99.8939 172.663 94.666 166.214 94.666C166.171 94.666 166.129 94.671 166.084 94.6726C166.162 94.1306 166.214 93.5819 166.214 93.0184C166.214 86.5714 160.988 81.3435 154.539 81.3435C148.092 81.3435 142.864 86.5714 142.864 93.0184C136.417 93.0184 131.189 98.2463 131.189 104.695C131.189 111.142 136.417 116.37 142.864 116.37C143.161 116.37 143.451 116.347 143.741 116.325C144.98 119.342 147.448 121.716 150.522 122.845C150.506 123.087 150.486 123.326 150.486 123.57C150.486 130.019 155.712 135.245 162.161 135.245C168.608 135.245 173.836 130.019 173.836 123.57C173.836 120.998 172.994 118.63 171.585 116.701C175.33 114.755 177.891 110.85 177.891 106.341Z" fill="white"/>
<path d="M162.161 137.354C154.778 137.354 148.731 131.518 148.392 124.217C145.866 122.957 143.779 120.945 142.433 118.472C135.032 118.242 129.082 112.15 129.082 104.695C129.082 97.7618 134.226 92.0084 140.897 91.0495C141.856 84.38 147.609 79.2345 154.541 79.2345C162.041 79.2345 168.162 85.2565 168.321 92.7168C174.927 93.7334 180.001 99.4555 180.001 106.339C180.001 110.742 177.927 114.796 174.469 117.375C175.439 119.289 175.945 121.395 175.945 123.568C175.945 131.17 169.761 137.354 162.161 137.354ZM145.08 114.109L145.692 115.525C146.706 117.994 148.733 119.942 151.251 120.866L152.725 121.407L152.615 123.171C152.605 123.305 152.595 123.436 152.595 123.572C152.595 128.846 156.887 133.138 162.161 133.138C167.437 133.138 171.727 128.846 171.727 123.572C171.727 121.543 171.089 119.598 169.883 117.945L168.437 115.963L170.615 114.831C173.801 113.175 175.782 109.921 175.782 106.343C175.782 101.085 171.518 96.8046 166.267 96.7765C166.211 96.7798 166.158 96.7815 166.105 96.7831L163.655 96.8062L163.998 94.3776C164.072 93.852 164.107 93.4204 164.107 93.02C164.107 87.746 159.816 83.454 154.541 83.454C149.267 83.454 144.975 87.746 144.975 93.02V95.1289H142.866C137.592 95.1289 133.3 99.4209 133.3 104.697C133.3 109.971 137.592 114.263 142.866 114.263C143.098 114.263 143.326 114.243 143.553 114.226L145.08 114.109Z" fill="#404042"/>
<path d="M64.0085 115.027L64.8373 99.8181C64.9345 98.0387 66.4552 96.6744 68.2346 96.7717L68.3236 96.7766C72.1295 96.9842 75.0475 100.237 74.8399 104.043L74.2105 115.582L76.1612 115.828L97.1896 94.8011C99.1832 92.8059 102.419 92.8059 104.414 94.8011C106.41 96.7964 106.41 100.031 104.414 102.026L83.386 123.054L108.978 97.462C110.973 95.4668 114.208 95.4668 116.203 97.462C118.198 99.4573 118.198 102.692 116.203 104.687L90.6107 130.277L111.639 109.251C113.634 107.255 116.869 107.255 118.864 109.251C120.859 111.246 120.859 114.48 118.864 116.475L97.8355 137.504L114.3 121.039C116.295 119.044 119.529 119.044 121.526 121.039C123.522 123.033 123.522 126.267 121.526 128.262L105.062 144.728L84.223 165.566L74.166 167.507L64.4863 177.185L43.7051 156.403L53.3831 146.724L55.324 136.667L63.7663 115.449L64.0085 115.027Z" fill="#4EA3DA"/>
<path d="M64.6484 103.273C67.2632 104.369 69.0377 107.013 68.8745 110.007L68.2452 121.548L70.1959 121.794L76.1602 115.828L74.2095 115.582L74.8389 104.042C75.0465 100.237 72.1286 96.9842 68.3226 96.7766L68.2336 96.7716C66.4542 96.6744 64.9335 98.0386 64.8363 99.818L64.6484 103.273Z" fill="white"/>
<path d="M121.525 121.038C119.53 119.042 116.294 119.042 114.299 121.038L118.863 116.475C120.858 114.48 120.858 111.246 118.863 109.251C116.868 107.255 113.632 107.255 111.638 109.251L116.2 104.687C118.196 102.693 118.196 99.4572 116.2 97.4619C114.205 95.4667 110.971 95.4667 108.976 97.4619L104.412 102.026C106.407 100.031 106.407 96.7947 104.412 94.7994C102.416 92.8042 99.1822 92.8042 97.1886 94.7994L91.2227 100.765C93.2179 98.7701 96.4522 98.7701 98.4474 100.765C100.443 102.761 100.443 105.995 98.4474 107.99L103.011 103.428C105.007 101.433 108.241 101.433 110.236 103.428C112.231 105.422 112.231 108.656 110.236 110.651L105.674 115.215C107.669 113.22 110.903 113.22 112.899 115.215C114.894 117.21 114.894 120.444 112.899 122.438L108.336 127.002C110.33 125.007 113.564 125.007 115.561 127.002C117.556 128.997 117.556 132.231 115.561 134.227L121.525 128.262C123.521 126.267 123.521 123.033 121.525 121.038Z" fill="white"/>
<path d="M64.4861 180.167L40.7227 156.403L51.4354 145.689L53.3647 135.886L61.929 114.409L62.7314 99.7027C62.8071 98.2792 63.4349 96.971 64.4959 96.0204C65.5586 95.068 66.9393 94.5836 68.348 94.6644L68.4403 94.6693C73.3979 94.9395 77.2138 99.1953 76.9452 104.156L76.4888 112.518L95.6983 93.31C97.0608 91.9458 98.8732 91.1962 100.801 91.1962C102.729 91.1962 104.543 91.9458 105.905 93.31C106.65 94.0531 107.212 94.9313 107.569 95.8902C110.39 93.1568 114.908 93.1832 117.694 95.9709C119.056 97.3335 119.808 99.1475 119.808 101.075C119.808 102.963 119.088 104.743 117.775 106.095C118.733 106.453 119.612 107.015 120.356 107.76C121.719 109.122 122.47 110.934 122.47 112.862C122.47 114.752 121.749 116.53 120.437 117.884C121.396 118.242 122.274 118.802 123.017 119.546C125.831 122.361 125.831 126.939 123.017 129.755L85.2574 167.515L75.2004 169.454L64.4861 180.167ZM46.687 156.403L64.4861 174.202L73.131 165.557L83.1897 163.618L120.035 126.773C121.205 125.601 121.205 123.698 120.035 122.529C118.908 121.403 116.947 121.393 115.812 122.511L99.3279 138.995L96.3458 136.013L112.81 119.548C112.82 119.538 112.83 119.528 112.84 119.517L117.372 114.984C117.939 114.418 118.252 113.665 118.252 112.862C118.252 112.061 117.939 111.308 117.372 110.742C116.244 109.613 114.278 109.606 113.141 110.729L92.1032 131.768L89.121 128.786L110.148 107.76C110.154 107.753 110.161 107.746 110.168 107.74L114.712 103.196C115.278 102.629 115.59 101.876 115.59 101.075C115.59 100.273 115.278 99.5199 114.712 98.9531C113.542 97.7833 111.639 97.7833 110.469 98.9531L105.925 103.496C105.918 103.504 105.912 103.509 105.907 103.515L84.8768 124.544L81.8946 121.562L102.938 100.52C103.495 99.9548 103.803 99.2068 103.803 98.4127C103.803 97.6103 103.49 96.8573 102.923 96.2906C101.789 95.157 99.814 95.1587 98.6804 96.2906L76.9222 118.049L71.9975 117.429L72.734 103.926C72.8773 101.288 70.8475 99.0239 68.2096 98.8806L68.119 98.8757C67.8208 98.8625 67.5358 98.9613 67.3133 99.1607C67.0909 99.36 66.9608 99.6335 66.9443 99.9318L66.0875 115.643L65.669 116.37L57.3569 137.262L55.332 147.758L46.687 156.403Z" fill="#404042"/>
<path d="M101.789 23.7828C101.789 21.1647 103.918 19.0377 106.535 19.0377C108.719 19.0377 110.49 17.2665 110.49 15.0818C110.49 12.8987 108.719 11.1275 106.535 11.1275C103.918 11.1275 101.789 8.99881 101.789 6.38241C101.789 4.19769 100.02 2.42816 97.8352 2.42816C95.6522 2.42816 93.881 4.19769 93.881 6.38241C93.881 8.99881 91.7523 11.1275 89.1359 11.1275C86.9512 11.1275 85.1816 12.8987 85.1816 15.0818C85.1816 17.2665 86.9512 19.0377 89.1359 19.0377C91.7523 19.0377 93.881 21.1647 93.881 23.7828C93.881 25.9658 95.6522 27.737 97.8352 27.737C100.02 27.737 101.789 25.9658 101.789 23.7828Z" fill="#FFCC34"/>
<path d="M97.8364 29.846C94.4935 29.846 91.7716 27.1258 91.7716 23.7828C91.7716 22.328 90.5903 21.1466 89.1354 21.1466C85.7925 21.1466 83.0723 18.4264 83.0723 15.0818C83.0723 11.7388 85.7925 9.01863 89.1354 9.01863C90.5903 9.01863 91.7716 7.83565 91.7716 6.38246C91.7716 3.03947 94.4935 0.319275 97.8364 0.319275C101.179 0.319275 103.9 3.03782 103.9 6.38246C103.9 7.83565 105.083 9.01863 106.536 9.01863C109.879 9.01863 112.599 11.7388 112.599 15.0818C112.599 18.4264 109.879 21.1466 106.536 21.1466C105.083 21.1466 103.9 22.328 103.9 23.7828C103.898 27.1258 101.179 29.846 97.8364 29.846ZM97.8364 4.53879C96.8182 4.53879 95.9895 5.36589 95.9895 6.38411C95.9895 10.1637 92.9151 13.2381 89.1354 13.2381C88.1189 13.2381 87.2901 14.0652 87.2901 15.0835C87.2901 16.1017 88.1172 16.9304 89.1354 16.9304C92.9151 16.9304 95.9895 20.0049 95.9895 23.7845C95.9895 24.801 96.8182 25.6298 97.8364 25.6298C98.853 25.6298 99.6818 24.8027 99.6818 23.7845C99.6818 20.0049 102.756 16.9304 106.536 16.9304C107.552 16.9304 108.381 16.1017 108.381 15.0835C108.381 14.0669 107.554 13.2381 106.536 13.2381C102.756 13.2381 99.6818 10.1637 99.6818 6.38411C99.6801 5.36589 98.853 4.53879 97.8364 4.53879Z" fill="#404042"/>
</g>
<defs>
<clipPath id="clip0_333_7485">
<rect width="180" height="180" fill="white"/>
</clipPath>
</defs>
</svg>
